<?xml version="1.0" encoding="UTF-8" standalone="no"?>
<svg
   xmlns:dc="http://purl.org/dc/elements/1.1/"
   xmlns:cc="http://creativecommons.org/ns#"
   xmlns:rdf="http://www.w3.org/1999/02/22-rdf-syntax-ns#"
   xmlns:svg="http://www.w3.org/2000/svg"
   xmlns="http://www.w3.org/2000/svg"
   viewBox="0 0 793.70135 1122.52"
   height="1122.52"
   width="793.70135"
   xml:space="preserve"
   id="svg2"
   version="1.1"><metadata
     id="metadata8"><rdf:RDF><cc:Work
         rdf:about=""><dc:format>image/svg+xml</dc:format><dc:type
           rdf:resource="http://purl.org/dc/dcmitype/StillImage" /></cc:Work></rdf:RDF></metadata><defs
     id="defs6"><clipPath
       id="clipPath18"
       clipPathUnits="userSpaceOnUse"><path
         id="path16"
         d="M 0,841.89 H 595.276 V 0 H 0 Z" /></clipPath></defs><g
     transform="matrix(1.3333333,0,0,-1.3333333,0,1122.52)"
     id="g10"><g
       id="g12"><g
         clip-path="url(#clipPath18)"
         id="g14"><g
           transform="translate(375.9209,494.4126)"
           id="g20"><path
             id="path22"
             style="fill:#0a8041;fill-opacity:1;fill-rule:nonzero;stroke:none"
             d="m 0,0 c -0.324,0.495 -1.896,2.613 -3.492,4.707 -1.597,2.094 -3.263,4.452 -3.702,5.24 l -0.799,1.431 -0.729,-1.04 C -9.989,8.527 -12.325,3.656 -13.29,0.812 l -0.931,-2.743 1.705,0.566 c 1.216,0.404 3.044,0.456 6.381,0.181 2.572,-0.212 5.137,-0.235 5.7,-0.051 C 0.498,-0.93 0.536,-0.82 0,0 m -22.952,12.924 c 0.34,2.159 0.248,3.108 -0.41,4.227 -1.112,1.892 -3.583,3.13 -5.144,2.575 -2.297,-0.817 -3.801,-6.008 -2.666,-9.201 0.999,-2.809 6.035,-3.738 7.282,-1.343 0.275,0.526 0.697,2.211 0.938,3.742 m -5.879,-8.108 c -2.279,0.483 -4.245,2.58 -5.383,5.744 -1.015,2.824 -1.027,4.741 -0.047,8 1.896,6.305 8.078,7.891 11.53,2.958 0.589,-0.842 1.175,-2.208 1.301,-3.037 0.157,-1.016 0.44,-1.548 0.87,-1.636 1.105,-0.226 1.673,-2.792 1.105,-4.986 -0.782,-3.019 -2.651,-5.232 -5.421,-6.416 -1.793,-0.767 -2.649,-0.902 -3.955,-0.627 m -60.672,-35.861 c -0.384,-0.035 -0.746,0.068 -0.804,0.23 -0.057,0.162 -0.752,0.156 -1.543,-0.013 -0.791,-0.168 -3.293,-0.313 -5.56,-0.321 -3.884,-0.014 -5.542,0.364 -5.348,1.222 0.107,0.476 1.106,0.844 1.243,0.458 0.057,-0.16 0.837,-0.019 1.734,0.314 0.896,0.333 1.685,0.443 1.753,0.245 0.159,-0.465 2.582,-0.029 2.977,0.535 0.504,0.72 2.83,0.876 3.281,0.221 0.246,-0.357 1.017,-0.545 1.921,-0.469 1.932,0.164 2.903,-0.341 2.533,-1.317 -0.263,-0.692 -0.832,-0.98 -2.187,-1.105 m -2.127,-15.188 c -1.371,-0.315 -1.997,-0.28 -2.237,0.127 -0.251,0.425 -0.007,0.74 0.987,1.277 0.726,0.392 1.739,1.099 2.252,1.571 2.104,1.937 6.648,2.777 7.164,1.324 0.152,-0.429 -0.061,-0.604 -0.878,-0.721 -0.595,-0.085 -0.843,-0.169 -0.553,-0.187 0.778,-0.047 0.986,-1.011 0.272,-1.264 -0.337,-0.121 -1.26,-0.222 -2.05,-0.226 -1.148,-0.005 -1.434,-0.106 -1.431,-0.508 0.006,-0.522 -0.347,-0.661 -3.525,-1.392 z m 5.834,-14.675 c -0.23,0.649 0.463,1.763 1.026,1.648 0.243,-0.051 0.638,0.529 0.877,1.285 0.239,0.757 0.753,1.489 1.143,1.628 0.62,0.22 0.672,0.153 0.421,-0.533 -0.248,-0.676 -0.227,-0.714 0.151,-0.274 1.015,1.181 1.934,2.682 1.827,2.982 -0.155,0.439 0.947,2.212 1.51,2.428 0.25,0.096 0.522,-0.016 0.605,-0.25 0.083,-0.234 0.46,0.173 0.837,0.902 0.377,0.731 1.06,1.461 1.518,1.624 0.745,0.265 0.852,0.165 1.006,-0.953 0.178,-1.293 -0.58,-3.085 -1.246,-2.949 -0.21,0.042 -0.464,-0.494 -0.566,-1.193 -0.136,-0.936 -0.519,-1.463 -1.448,-1.999 -0.694,-0.4 -2.082,-1.446 -3.084,-2.325 -2.059,-1.804 -4.302,-2.795 -4.577,-2.021 m 37.565,19.331 c -0.219,0.244 -0.276,0.128 -0.145,-0.295 0.118,-0.383 0.279,-0.564 0.359,-0.401 0.079,0.162 -0.017,0.475 -0.215,0.696 z m 11.333,-12.888 c -1.455,0.867 -2.643,1.76 -2.641,1.985 0.003,0.225 -0.46,0.732 -1.028,1.126 -2.397,1.668 -8.745,8.54 -9.282,10.049 -0.064,0.183 0.176,0.327 0.535,0.321 0.57,-0.01 0.521,0.236 -0.38,1.939 -0.568,1.072 -1.834,4.206 -2.815,6.962 -1.707,4.8 -1.78,5.173 -1.724,8.765 0.037,2.446 0.248,3.818 0.604,3.945 0.376,0.134 0.568,-0.064 0.614,-0.628 0.086,-1.068 0.091,-1.053 1.086,2.89 0.843,3.336 1.98,5.5 3.101,5.899 0.9,0.319 0.933,-0.396 0.114,-2.46 -0.411,-1.037 -1.008,-3.91 -1.325,-6.384 -0.317,-2.473 -0.686,-4.595 -0.817,-4.715 -0.511,-0.462 0.076,-3.325 1.861,-9.087 1.525,-4.924 2.129,-6.415 3.382,-8.357 2.056,-3.185 5.085,-6.616 8.692,-9.844 4.464,-3.995 4.474,-5.06 0.023,-2.406 m 12.013,-44.436 c 7.302,4.359 8.918,5.745 15.81,13.562 5.687,6.45 6.297,7.772 5.334,11.558 -0.608,2.387 -0.161,2.909 1.053,1.233 0.978,-1.349 1.221,-3.303 0.666,-5.366 -0.378,-1.406 -0.367,-1.545 0.067,-0.769 0.965,1.724 1.013,4.291 0.128,6.773 -1.085,3.052 -1.869,4.085 -6.815,9.024 -4.205,4.2 -6.507,7.525 -5.234,7.559 0.618,0.016 8.259,-6.087 10.627,-8.489 1.61,-1.634 1.586,-1.63 5.935,-1.051 6.234,0.83 21.674,5.327 28.116,8.189 11.408,5.069 27.55,15.15 28.091,17.545 0.045,0.202 -2.317,-0.266 -5.248,-1.04 -6.202,-1.638 -19.623,-4.393 -24.651,-5.063 -1.915,-0.254 -6.11,-0.467 -9.324,-0.471 -21.01,-0.029 -34.561,2.417 -37.466,6.764 -0.285,0.427 -0.829,2.128 -1.208,3.78 -0.379,1.653 -0.772,3.043 -0.875,3.09 -0.102,0.048 0.023,-1.122 0.277,-2.599 0.672,-3.894 -0.102,-3.727 -1.19,0.256 -0.996,3.647 -1.967,10.308 -1.574,10.801 0.142,0.18 0.539,2.423 0.88,4.984 0.841,6.33 3.265,15.664 5.688,21.906 0.955,2.461 1.559,3.232 1.517,1.939 -0.013,-0.388 1.526,2.482 3.42,6.378 3.89,8.007 8.186,14.665 11.804,18.296 1.351,1.355 4.091,3.61 6.089,5.011 1.999,1.402 3.807,2.844 4.019,3.206 0.602,1.03 2.595,2.115 3.123,1.7 0.355,-0.279 0.637,-0.183 1.36,0.459 0.572,0.508 1.284,0.816 1.911,0.825 0.549,0.009 2.286,0.573 3.86,1.254 l 2.861,1.238 -2.476,0.579 C 18.146,44.988 12.626,45.566 9.094,45.479 1.81,45.299 -4.143,43.777 -13.503,39.7 c -6.824,-2.972 -9.346,-4.51 -16.066,-9.798 -6.041,-4.753 -10.922,-9.51 -14.534,-14.168 -3.342,-4.311 -10.959,-17.752 -13.961,-24.639 -4,-9.175 -9.944,-21.334 -11.217,-22.948 -1.485,-1.88 -3.115,-2.581 -4.759,-2.047 -0.645,0.209 -2.82,1.749 -4.835,3.422 -6.663,5.533 -9.677,7.543 -14.789,9.86 -6.12,2.774 -21.433,8.487 -25.765,9.612 l -3.182,0.827 2.611,-2.523 c 4.007,-3.872 15.077,-19.202 21.796,-30.185 3.441,-5.624 8.904,-18.736 10.147,-24.352 2.094,-9.465 2.728,-12.674 3.205,-16.208 0.282,-2.082 0.607,-3.83 0.725,-3.884 0.407,-0.188 7.962,16.252 10.289,22.389 1.288,3.398 2.845,8.421 3.458,11.164 0.613,2.742 1.368,5.544 1.676,6.225 1.054,2.333 3.467,2.291 4.851,-0.084 1.662,-2.847 8.643,-7.728 16.377,-11.45 5.348,-2.574 10.471,-4.276 15.085,-5.014 l 2.84,-0.454 0.946,1.874 c 1.021,2.025 1.677,2.202 1.629,0.44 -0.055,-2.018 -3.765,-15.645 -4.172,-15.326 -0.369,0.288 -2.48,-6.646 -5.938,-19.496 -1.217,-4.522 -1.271,-5.016 -0.54,-4.864 0.448,0.093 1.086,0.174 1.418,0.179 0.956,0.018 0.02,-0.946 -1.427,-1.467 -1.944,-0.702 -1.111,-1.154 1.024,-0.555 5.327,1.493 7.771,2.509 11.726,4.869 m -11.247,-7.841 c -5.067,-0.964 -6.269,-0.765 -6.95,1.149 -0.574,1.616 -0.104,3.701 2.311,10.229 4.193,11.331 9.488,26.352 9.317,26.431 -0.105,0.048 -1.984,0.468 -4.176,0.932 -2.192,0.464 -5.453,1.351 -7.247,1.97 -5.78,1.995 -16.51,8.026 -20.84,11.713 -0.872,0.743 -1.675,1.319 -1.783,1.281 -0.108,-0.038 -0.44,-1.334 -0.738,-2.88 -1.436,-7.453 -10.288,-28.188 -15.191,-35.579 -2.881,-4.344 -4.591,-5.527 -6.23,-4.31 -0.868,0.644 -0.929,0.937 -1.196,5.725 -0.816,14.655 -6.523,34.301 -13.14,45.242 -0.773,1.277 -2.261,3.834 -3.307,5.68 -3.052,5.391 -10.014,14.651 -17.913,23.826 -1.004,1.167 -2.733,2.845 -3.842,3.729 -2.343,1.868 -3.284,3.788 -2.351,4.795 1.706,1.842 4.009,1.489 16.613,-2.544 11.23,-3.592 13.583,-4.425 17.871,-6.324 5.509,-2.441 7.283,-3.528 15.225,-9.336 3.367,-2.463 6.452,-4.594 6.855,-4.736 0.632,-0.222 1.712,1.854 7.852,15.088 6.546,14.11 7.061,15.39 6.4,15.902 -0.395,0.306 -1.173,1.484 -1.726,2.618 -3.203,6.552 -9.896,13.55 -14.989,15.673 -3.33,1.389 -10.264,3.244 -13.539,3.624 -4.919,0.57 -6.547,1.738 -5.691,4.081 0.52,1.421 1.153,1.964 5.129,4.399 6.319,3.868 15.122,5.999 23.74,5.744 12.02,-0.355 23.683,-3.142 27.572,-6.589 1.639,-1.453 0.979,-1.599 -1.778,-0.393 -1.487,0.65 -4.438,1.598 -6.556,2.104 -4.542,1.087 -14.161,2.376 -18.582,2.49 -3.696,0.095 -5.851,-0.073 -3.613,-0.283 2.425,-0.227 0.821,-0.788 -3.533,-1.236 -5.316,-0.546 -11.217,-2.314 -14.433,-4.321 -1.333,-0.832 -2.534,-1.643 -2.669,-1.801 -0.136,-0.159 1.193,-0.499 2.951,-0.756 6.768,-0.991 11.806,-3.003 16.719,-6.674 5.655,-4.225 8.502,-7.43 12.454,-14.025 l 1.147,-1.913 2.811,5.066 c 1.547,2.785 4.207,6.887 5.912,9.113 4.418,5.77 10.399,12.158 8.225,8.785 -0.557,-0.864 -0.331,-0.74 1.382,0.755 4.692,4.097 12.081,9.722 15.182,11.561 13.939,8.261 27.349,11.112 43.849,9.321 5.528,-0.6 7.447,-1.261 7.977,-2.749 0.322,-0.906 -0.351,-2.35 -1.243,-2.668 -0.333,-0.118 -1.803,-0.9 -3.269,-1.739 C 23.371,40.59 21.002,39.278 19.572,38.513 14.545,35.825 7.516,31.29 5.328,29.324 4.113,28.231 2.766,27.157 2.335,26.937 1.048,26.28 -1.32,23.136 -4.028,18.491 l -2.548,-4.371 1.243,0.181 c 0.685,0.099 4.111,-0.43 7.616,-1.176 6.739,-1.435 8.895,-1.79 9.522,-1.567 0.71,0.253 -0.755,3.369 -3.461,7.364 -1.477,2.179 -3.044,4.896 -3.483,6.037 -0.686,1.785 -0.712,2.214 -0.18,3.062 1.232,1.967 3.453,1.925 10.231,-0.194 2.554,-0.798 6.164,-1.839 8.025,-2.313 2.813,-0.718 3.276,-0.946 2.755,-1.36 -0.552,-0.44 -0.459,-0.519 0.813,-0.68 0.791,-0.1 1.948,-0.017 2.572,0.185 2.421,0.786 2.017,3.352 -1.746,11.088 -2.521,5.181 -2.962,6.446 -2.109,6.053 0.584,-0.269 3.99,-6.223 5.42,-9.473 1.703,-3.869 1.987,-5.515 1.272,-7.363 C 31.462,22.794 31.094,22.451 29.8,21.99 27.758,21.265 23.36,21.772 19.021,23.234 15.088,24.56 10.885,25.731 8.53,26.158 L 6.808,26.47 7.761,24.615 c 0.524,-1.02 1.885,-3.247 3.025,-4.949 3.008,-4.493 3.639,-5.761 3.665,-7.363 0.059,-3.692 -3.13,-4.101 -12.222,-1.568 -5.782,1.611 -7.191,1.681 -7.409,1.235 -0.147,-0.301 1.191,-2.236 4.826,-7.357 3.295,-4.64 3.727,-6.943 1.455,-7.751 -1.018,-0.362 -4.906,-0.309 -9.463,0.13 -1.639,0.157 -3.273,0.181 -3.631,0.054 -1.045,-0.372 -0.117,-2.255 3.297,-6.692 4.505,-5.855 4.894,-7.335 2.183,-8.296 -1.295,-0.461 -2.674,-0.493 -5.776,-0.139 -2.241,0.256 -4.206,0.645 -4.366,0.866 -0.342,0.471 -0.067,0.49 4.556,0.309 6.172,-0.241 6.535,0.033 4.22,3.193 -0.747,1.022 -1.52,2.163 -1.718,2.536 -0.197,0.374 -0.895,1.305 -1.549,2.071 -0.656,0.765 -1.74,2.279 -2.41,3.364 l -1.216,1.972 -1.064,-3.993 c -1.252,-4.704 -2.108,-9.541 -2.245,-12.682 -0.205,-4.675 0.328,-11.436 1.134,-14.379 0.732,-2.673 0.957,-3.104 2.087,-3.99 5.305,-4.164 33.338,-6.09 48.464,-3.331 6.552,1.195 20.067,4.234 20.21,4.546 0.053,0.112 -1.295,2.885 -2.997,6.162 -4.332,8.352 -7.131,12.387 -8.304,11.97 -0.622,-0.221 -1.644,-3.601 -3.331,-11.023 -1.555,-6.839 -2.153,-8.269 -3.679,-8.812 -2.004,-0.713 -2.659,-0.054 -5.834,5.863 -1.581,2.946 -3.261,5.824 -3.732,6.394 l -0.856,1.037 -0.85,-1.643 c -0.467,-0.904 -1.733,-4.08 -2.812,-7.058 -1.08,-2.979 -2.276,-5.899 -2.659,-6.491 -0.951,-1.473 -2.202,-1.842 -3.351,-0.989 -0.821,0.609 -1.157,1.405 -2.661,6.31 -1.922,6.268 -2.919,8.42 -3.76,8.121 -0.301,-0.108 -1.881,-2.847 -3.509,-6.088 -3.017,-6.008 -3.871,-6.989 -5.116,-5.879 -0.807,0.72 -1.959,3.982 -3.249,9.21 -2.052,8.312 -3.853,8.231 -8.713,-0.39 -3.001,-5.323 -3.441,-5.994 -3.823,-5.818 -0.517,0.239 3.7,8.758 5.523,11.153 3.598,4.731 6.572,3.513 8.052,-3.301 0.76,-3.494 2.776,-9.416 3.159,-9.28 0.14,0.05 1.469,2.714 2.955,5.921 2.653,5.73 2.725,5.836 4.203,6.233 1.289,0.346 1.658,0.258 2.59,-0.622 0.914,-0.863 1.447,-2.044 3.373,-7.472 1.526,-4.293 2.104,-6.309 1.74,-6.035 -0.3,0.226 -0.488,0.25 -0.419,0.053 0.07,-0.197 0.33,-0.513 0.578,-0.703 0.595,-0.455 1.15,0.818 3.443,7.887 1.951,6.012 3.013,8.021 4.525,8.559 2.073,0.737 3.041,-0.353 7.323,-8.245 1.236,-2.279 2.394,-4.211 2.572,-4.293 0.465,-0.215 0.896,1.214 2.869,9.523 1.966,8.274 2.61,9.712 4.643,10.374 1.184,0.386 1.252,0.369 0.533,-0.137 l -0.825,-0.581 1.002,0.095 c 0.551,0.053 1.462,-0.281 2.024,-0.741 1.518,-1.241 4.472,-6.246 7.596,-12.869 1.581,-3.352 2.987,-5.922 3.276,-5.988 0.279,-0.064 1.218,0.134 2.089,0.44 2.345,0.824 3.169,0.587 3.764,-1.086 0.579,-1.627 0.128,-2.756 -1.965,-4.918 -1.534,-1.585 -8.249,-6.015 -10.696,-7.058 -0.887,-0.377 -3.858,-1.946 -6.602,-3.485 -8.309,-4.661 -13.232,-6.736 -22.69,-9.563 -7.408,-2.214 -14.544,-4.008 -18.008,-4.526 l -1.204,-0.18 0.924,-1.43 c 1.329,-2.055 2.17,-5.545 1.862,-7.732 -0.143,-1.027 -0.796,-3.04 -1.449,-4.475 -1.267,-2.781 -5.038,-7.603 -5.495,-7.026 -0.245,0.309 -5.569,-4.199 -6.275,-5.313 -0.558,-0.881 -4.467,-4.173 -7.584,-6.386 -2.969,-2.11 -3.725,-2.475 -8.628,-4.17 -2.995,-1.036 -7.193,-2.204 -9.487,-2.642 z" /></g><g
           transform="translate(288.0479,418.8555)"
           id="g24"><path
             id="path26"
             style="fill:#0a8041;fill-opacity:1;fill-rule:nonzero;stroke:none"
             d="m 0,0 c -7.573,-14.187 -24.194,-32.333 -46.015,-48.919 -35.536,-27.01 -71.385,-39.641 -80.071,-28.213 -8.687,11.429 13.079,42.589 48.614,69.599 26.757,20.337 53.689,32.52 69.073,32.421 -0.304,0.541 -0.602,1.084 -0.913,1.621 -0.242,0.417 -0.332,0.827 -0.311,1.21 -16.77,-2.117 -42.735,-14.65 -68.578,-34.292 -37.803,-28.734 -61.026,-61.794 -51.868,-73.842 9.158,-12.049 47.227,1.477 85.031,30.21 20.665,15.708 36.967,32.705 46.01,46.859 C 0.657,-2.228 0.352,-1.105 0,0" /></g><g
           transform="translate(238.3843,406.6689)"
           id="g28"><path
             id="path30"
             style="fill:#0a8041;fill-opacity:1;fill-rule:nonzero;stroke:none"
             d="M 0,0 C -39.964,12.204 -75.037,13.339 -78.336,2.535 -81.635,-8.27 -51.913,-26.921 -11.948,-39.126 28.016,-51.33 63.088,-52.465 66.388,-41.661 69.687,-30.856 39.964,-12.205 0,0 m 70.958,-43.226 c -3.478,-11.389 -40.763,-10.098 -83.277,2.885 -42.515,12.984 -74.16,32.741 -70.682,44.132 3.479,11.39 40.763,10.099 83.278,-2.885 42.515,-12.983 74.16,-32.741 70.681,-44.132" /></g><g
           transform="translate(242.8472,396.5811)"
           id="g32"><path
             id="path34"
             style="fill:#0a8041;fill-opacity:1;fill-rule:nonzero;stroke:none"
             d="M 0,0 C -16.08,29.499 -35.786,49.776 -44.016,45.291 -52.245,40.805 -45.88,13.255 -29.8,-16.244 -13.72,-45.743 5.987,-66.021 14.216,-61.535 22.445,-57.05 16.081,-29.499 0,0 m 15.957,-65.008 c -8.676,-4.729 -29.576,16.877 -46.683,48.259 -17.106,31.382 -23.941,60.655 -15.265,65.384 8.676,4.729 29.576,-16.877 46.682,-48.259 17.106,-31.382 23.941,-60.655 15.266,-65.384" /></g><g
           transform="translate(236.4331,393.1943)"
           id="g36"><path
             id="path38"
             style="fill:#0a8041;fill-opacity:1;fill-rule:nonzero;stroke:none"
             d="m 0,0 c 1.933,-5.346 -0.834,-11.245 -6.179,-13.178 -5.346,-1.932 -11.245,0.835 -13.178,6.18 -1.932,5.346 0.835,11.245 6.18,13.178 C -7.832,8.111 -1.932,5.345 0,0" /></g><g
           transform="translate(248.2485,419.8975)"
           id="g40"><path
             id="path42"
             style="fill:#0a8041;fill-opacity:1;fill-rule:evenodd;stroke:none"
             d="m 0,0 2.13,-1.59 c 0.826,1.11 1.671,2.205 2.531,3.286 L 2.582,3.351 C 1.703,2.247 0.842,1.13 0,0" /></g><g
           transform="translate(243.8735,413.7051)"
           id="g44"><path
             id="path46"
             style="fill:#0a8041;fill-opacity:1;fill-rule:evenodd;stroke:none"
             d="m 0,0 2.208,-1.479 c 0.771,1.151 1.557,2.291 2.358,3.418 L 2.4,3.479 C 1.583,2.331 0.784,1.171 0,0" /></g><g
           transform="translate(239.8345,407.3125)"
           id="g48"><path
             id="path50"
             style="fill:#0a8041;fill-opacity:1;fill-rule:evenodd;stroke:none"
             d="M 0,0 2.989,-0.168 C 3.69,1.018 3.716,1.01 4.459,2.176 L 2.218,3.604 C 1.46,2.415 0.72,1.216 0,0" /></g><g
           transform="translate(263.5928,436.7534)"
           id="g52"><path
             id="path54"
             style="fill:#0a8041;fill-opacity:1;fill-rule:evenodd;stroke:none"
             d="m 0,0 1.731,-2.016 c 1.035,0.893 2.097,1.75 3.185,2.566 L 3.318,2.674 C 2.179,1.82 1.074,0.927 0,0" /></g><g
           transform="translate(258.0576,431.5195)"
           id="g56"><path
             id="path58"
             style="fill:#0a8041;fill-opacity:1;fill-rule:evenodd;stroke:none"
             d="m 0,0 1.909,-1.849 c 0.958,0.985 1.935,1.952 2.933,2.891 L 3.023,2.98 C 1.992,2.009 0.986,1.014 0,0" /></g><g
           transform="translate(252.9897,425.8901)"
           id="g60"><path
             id="path62"
             style="fill:#0a8041;fill-opacity:1;fill-rule:evenodd;stroke:none"
             d="M 0,0 2.034,-1.71 C 2.92,-0.652 3.83,0.385 4.754,1.406 L 2.785,3.191 C 1.837,2.144 0.906,1.082 0,0" /></g><g
           transform="translate(276.4619,445.0791)"
           id="g64"><path
             id="path66"
             style="fill:#0a8041;fill-opacity:1;fill-rule:evenodd;stroke:none"
             d="m 0,0 1.039,-2.447 c 1.225,0.516 2.475,0.956 3.743,1.302 L 3.795,1.318 C 2.398,0.938 1.326,0.558 0,0" /></g><g
           transform="translate(269.7231,441.416)"
           id="g68"><path
             id="path70"
             style="fill:#0a8041;fill-opacity:1;fill-rule:evenodd;stroke:none"
             d="m 0,0 1.463,-2.219 c 1.128,0.745 2.287,1.434 3.47,2.068 L 3.683,2.194 C 2.42,1.518 1.19,0.786 0,0" /></g><g
           transform="translate(311.8838,363.3262)"
           id="g72"><path
             id="path74"
             style="fill:#0a8041;fill-opacity:1;fill-rule:evenodd;stroke:none"
             d="m 0,0 c 0.355,-2.894 -1.702,-5.526 -4.596,-5.882 -2.892,-0.354 -5.526,1.702 -5.881,4.596 -0.355,2.893 1.703,5.526 4.596,5.882 C -2.988,4.95 -0.354,2.893 0,0" /></g><g
           transform="translate(163.3184,410.4482)"
           id="g76"><path
             id="path78"
             style="fill:#0a8041;fill-opacity:1;fill-rule:evenodd;stroke:none"
             d="m 0,0 c 0.355,-2.894 -1.703,-5.526 -4.596,-5.882 -2.893,-0.355 -5.526,1.702 -5.881,4.596 -0.355,2.892 1.703,5.526 4.596,5.881 C -2.988,4.95 -0.355,2.893 0,0" /></g><g
           transform="translate(214.459,372.3418)"
           id="g80"><path
             id="path82"
             style="fill:#0a8041;fill-opacity:1;fill-rule:evenodd;stroke:none"
             d="m 0,0 c 0.355,-2.893 -1.703,-5.526 -4.596,-5.881 -2.893,-0.355 -5.526,1.702 -5.881,4.596 -0.355,2.892 1.702,5.525 4.596,5.881 C -2.988,4.951 -0.355,2.894 0,0" /></g><g
           transform="translate(213.1992,390.0342)"
           id="g84"><path
             id="path86"
             style="fill:#0a8041;fill-opacity:1;fill-rule:evenodd;stroke:none"
             d="m 0,0 c 0.355,-2.893 -1.703,-5.526 -4.596,-5.881 -2.893,-0.355 -5.526,1.702 -5.881,4.595 -0.355,2.893 1.702,5.526 4.596,5.882 C -2.988,4.951 -0.355,2.894 0,0" /></g><g
           transform="translate(249.0918,397.7715)"
           id="g88"><path
             id="path90"
             style="fill:#0a8041;fill-opacity:1;fill-rule:evenodd;stroke:none"
             d="m 0,0 c 0.355,-2.893 -1.703,-5.525 -4.596,-5.881 -2.893,-0.355 -5.526,1.702 -5.881,4.596 -0.355,2.892 1.702,5.526 4.596,5.881 C -2.988,4.951 -0.355,2.894 0,0" /></g><g
           transform="translate(171.8516,577.79)"
           id="g92"><path
             id="path94"
             style="fill:#0a8041;fill-opacity:1;fill-rule:nonzero;stroke:none"
             d="m 0,0 c 2.46,2.044 4.482,4.186 6.064,6.427 1.582,2.241 2.769,4.483 3.56,6.724 0.791,2.241 1.252,4.328 1.384,6.262 0.175,2.68 -0.132,4.768 -0.923,6.262 C 9.294,27.168 7.91,28.289 5.933,29.037 3.955,29.784 1.538,29.696 -1.319,28.773 -2.857,23.016 -4.219,17.336 -5.405,11.734 -6.592,6.13 -7.735,0.472 -8.833,-5.24 -5.405,-3.79 -2.462,-2.043 0,0 m -11.766,40.408 c 2.262,0.812 4.668,1.427 7.218,1.845 2.548,0.417 5.152,0.571 7.811,0.462 2.658,-0.111 5.229,-0.616 7.712,-1.516 2.483,-0.902 4.779,-2.253 6.888,-4.054 2.11,-1.803 3.889,-4.197 5.34,-7.185 1.23,-2.373 1.999,-4.967 2.307,-7.778 0.307,-2.813 0.142,-5.703 -0.494,-8.669 C 24.378,10.547 23.269,7.591 21.687,4.647 20.105,1.703 18.05,-1.066 15.523,-3.658 12.996,-6.251 9.997,-8.58 6.526,-10.646 c -3.472,-2.065 -7.406,-3.713 -11.799,-4.943 -2.242,-0.791 -4.593,-0.594 -7.054,0.593 -1.231,0.615 -2.307,1.22 -3.23,1.813 -0.922,0.593 -1.977,1.329 -3.164,2.208 -0.439,0.395 -0.857,0.78 -1.252,1.154 -0.396,0.372 -0.735,0.801 -1.022,1.285 -0.285,0.483 -0.471,1.077 -0.56,1.78 -0.088,0.702 -0.066,1.603 0.066,2.702 l 3.823,41.858 c 1.669,0.923 3.636,1.79 5.9,2.604" /></g><g
           transform="translate(210.4453,617.5054)"
           id="g96"><path
             id="path98"
             style="fill:#0a8041;fill-opacity:1;fill-rule:nonzero;stroke:none"
             d="m 0,0 c 2.307,0.527 4.723,1.011 7.25,1.45 2.527,0.439 5.12,0.824 7.779,1.154 2.658,0.33 5.306,0.538 7.943,0.626 2.505,0.043 4.109,-0.923 4.812,-2.9 0.57,-1.055 0.966,-2.011 1.187,-2.868 0.218,-0.857 0.438,-1.791 0.658,-2.801 0.176,-1.143 0.088,-1.912 -0.263,-2.307 -0.352,-0.396 -1.165,-0.682 -2.439,-0.857 -2.637,-0.308 -5.362,-0.616 -8.174,-0.923 -2.813,-0.308 -5.779,-0.682 -8.899,-1.12 -0.659,-1.978 -1.275,-4.033 -1.845,-6.164 -0.572,-2.132 -1.209,-4.362 -1.912,-6.69 1.319,0.174 2.637,0.306 3.955,0.395 1.319,0.088 2.724,0.153 4.219,0.198 1.229,0.043 2.197,-0.066 2.9,-0.33 0.703,-0.263 1.296,-0.835 1.78,-1.714 0.528,-0.879 0.933,-1.747 1.219,-2.604 0.286,-0.857 0.538,-1.725 0.759,-2.603 0.351,-1.011 0.383,-1.692 0.098,-2.044 -0.286,-0.352 -1.044,-0.659 -2.274,-0.922 -2.636,-0.484 -5.329,-0.946 -8.074,-1.385 -2.747,-0.44 -5.396,-0.923 -7.944,-1.45 -0.352,-1.407 -0.681,-2.735 -0.988,-3.988 -0.309,-1.252 -0.638,-2.494 -0.99,-3.724 2.066,0.351 4.032,0.636 5.9,0.857 1.868,0.219 3.9,0.395 6.097,0.527 1.23,0.088 2.186,0 2.868,-0.264 0.681,-0.263 1.263,-0.791 1.747,-1.582 0.527,-0.879 0.933,-1.703 1.219,-2.471 0.286,-0.77 0.604,-1.55 0.956,-2.341 0.22,-0.879 0.22,-1.483 0,-1.812 -0.22,-0.33 -0.922,-0.605 -2.109,-0.824 -2.813,-0.528 -5.669,-1.078 -8.569,-1.648 -2.901,-0.572 -5.669,-1.098 -8.306,-1.582 -1.758,-0.439 -3.088,-0.538 -3.988,-0.297 -0.901,0.242 -1.681,0.583 -2.34,1.022 -0.748,0.483 -1.461,0.977 -2.142,1.483 -0.682,0.504 -1.484,1.153 -2.406,1.944 -0.747,0.615 -1.329,1.34 -1.747,2.176 -0.417,0.834 -0.582,1.845 -0.495,3.032 l 6.263,43.835 C -4.407,-1.033 -2.307,-0.527 0,0" /></g><g
           transform="translate(285.062,596.6099)"
           id="g100"><path
             id="path102"
             style="fill:#0a8041;fill-opacity:1;fill-rule:nonzero;stroke:none"
             d="m 0,0 c 2.219,1.274 4.087,2.56 5.603,3.856 1.516,1.296 2.626,2.526 3.329,3.691 0.703,1.164 0.966,2.099 0.791,2.802 -0.176,0.57 -0.66,0.999 -1.45,1.285 C 7.481,11.919 6.46,12.03 5.208,11.964 3.956,11.898 2.516,11.645 0.89,11.206 -0.736,10.766 -2.494,10.107 -4.383,9.228 -4.999,7.338 -5.526,5.361 -5.965,3.296 -6.405,1.229 -6.933,-0.967 -7.547,-3.296 -4.736,-2.373 -2.219,-1.275 0,0 m -11.14,-19.544 c -0.374,-1.693 -0.714,-3.418 -1.021,-5.175 2.284,0.571 4.371,1.262 6.262,2.076 1.888,0.813 3.493,1.67 4.812,2.571 1.318,0.9 2.295,1.801 2.933,2.702 0.636,0.901 0.867,1.725 0.692,2.473 -0.221,0.439 -0.659,0.834 -1.318,1.186 -0.659,0.351 -1.539,0.593 -2.637,0.725 -1.099,0.132 -2.373,0.099 -3.823,-0.098 -1.45,-0.198 -3.055,-0.584 -4.812,-1.154 -0.352,-1.846 -0.715,-3.616 -1.088,-5.306 m 25.181,7.877 c 1.076,-1.583 1.79,-3.209 2.142,-4.878 0.219,-1.978 -0.044,-3.659 -0.791,-5.043 -0.748,-1.384 -1.956,-2.736 -3.625,-4.054 -1.143,-1.011 -2.495,-1.978 -4.054,-2.9 -1.561,-0.923 -3.209,-1.758 -4.944,-2.505 -1.737,-0.748 -3.484,-1.417 -5.241,-2.011 -1.757,-0.593 -3.427,-1.088 -5.009,-1.483 -0.836,-0.219 -1.549,-0.373 -2.143,-0.461 -0.593,-0.088 -1.165,-0.109 -1.713,-0.066 -0.551,0.044 -1.088,0.154 -1.616,0.329 -0.527,0.176 -1.143,0.462 -1.845,0.857 -1.319,0.572 -2.472,1.175 -3.461,1.813 -0.989,0.637 -2.142,1.461 -3.461,2.472 -0.483,0.527 -0.911,0.977 -1.285,1.351 -0.373,0.373 -0.67,0.768 -0.89,1.187 -0.219,0.417 -0.373,0.89 -0.461,1.417 -0.088,0.527 -0.088,1.208 0,2.043 0.131,2.724 0.374,5.811 0.725,9.262 0.352,3.449 0.736,7.03 1.153,10.744 0.418,3.714 0.791,7.449 1.121,11.206 0.33,3.758 0.538,7.327 0.626,10.712 1.67,0.923 3.603,1.779 5.801,2.571 2.197,0.791 4.492,1.472 6.888,2.043 2.395,0.571 4.823,0.989 7.284,1.252 2.461,0.264 4.8,0.33 7.021,0.198 2.218,-0.132 4.251,-0.494 6.097,-1.087 1.846,-0.594 3.361,-1.462 4.548,-2.604 1.538,-1.539 2.823,-3.187 3.856,-4.944 1.032,-1.758 1.79,-3.801 2.275,-6.13 C 23.258,8.349 23.247,7.119 23.005,5.933 22.763,4.746 22.357,3.603 21.786,2.505 21.214,1.406 20.511,0.384 19.676,-0.561 18.841,-1.506 17.94,-2.396 16.974,-3.23 c -1.055,-0.791 -2.132,-1.594 -3.23,-2.406 -1.099,-0.814 -2.395,-1.593 -3.889,-2.34 1.714,-0.88 3.108,-2.109 4.186,-3.691" /></g><g
           transform="translate(330.9727,607.7168)"
           id="g104"><path
             id="path106"
             style="fill:#0a8041;fill-opacity:1;fill-rule:nonzero;stroke:none"
             d="m 0,0 c -1.144,-1.078 -2.286,-2.538 -3.428,-4.383 -1.143,-1.846 -2.208,-3.901 -3.197,-6.164 -0.988,-2.264 -1.791,-4.449 -2.406,-6.558 -0.615,-2.067 -1.054,-4.209 -1.319,-6.427 -0.263,-2.22 -0.351,-4.285 -0.263,-6.197 0.088,-1.911 0.395,-3.549 0.924,-4.911 0.526,-1.362 1.294,-2.197 2.306,-2.505 0.923,-0.307 1.889,-0.11 2.901,0.594 1.01,0.702 2.02,1.78 3.032,3.23 1.011,1.45 1.966,3.24 2.867,5.372 0.9,2.131 1.681,4.449 2.34,6.954 0.571,2.065 1.032,4.339 1.385,6.823 0.351,2.482 0.527,4.8 0.527,6.954 0,2.197 -0.209,4.075 -0.626,5.636 C 4.625,-0.022 3.977,0.89 3.098,1.153 2.175,1.46 1.143,1.076 0,0 m 17.369,3.428 c 0.769,-1.516 1.329,-3.241 1.681,-5.175 0.483,-3.208 0.594,-6.691 0.33,-10.448 -0.264,-3.757 -0.912,-7.492 -1.944,-11.205 -1.034,-3.715 -2.44,-7.219 -4.219,-10.515 -1.78,-3.295 -3.967,-6.086 -6.56,-8.371 -1.758,-1.362 -3.603,-2.274 -5.536,-2.735 -1.934,-0.462 -4.153,-0.561 -6.658,-0.297 -1.671,0.176 -3.384,0.451 -5.142,0.824 -1.758,0.373 -3.361,0.933 -4.811,1.681 -1.188,0.615 -2.352,1.406 -3.494,2.373 -1.144,0.966 -2.044,2.065 -2.703,3.295 -1.054,2.021 -1.845,4.307 -2.374,6.856 -0.526,2.548 -0.767,5.229 -0.724,8.042 0.044,2.811 0.374,5.679 0.989,8.602 0.615,2.922 1.516,5.768 2.702,8.537 1.187,2.768 2.648,5.393 4.384,7.877 1.735,2.482 3.746,4.712 6.031,6.69 1.538,1.187 3.372,2.087 5.504,2.703 2.132,0.615 4.163,0.768 6.098,0.461 C 3.428,12.228 5.811,11.612 8.075,10.777 10.338,9.942 12.217,8.932 13.711,7.745 15.38,6.383 16.6,4.944 17.369,3.428" /></g><g
           transform="translate(371.4775,564.4751)"
           id="g108"><path
             id="path110"
             style="fill:#0a8041;fill-opacity:1;fill-rule:nonzero;stroke:none"
             d="m 0,0 c -2.923,-0.55 -5.702,-1.088 -8.338,-1.615 -0.968,-0.264 -1.78,-0.417 -2.439,-0.462 -0.66,-0.043 -1.231,-0.01 -1.714,0.099 -0.485,0.111 -0.89,0.254 -1.22,0.429 -0.329,0.176 -0.648,0.374 -0.955,0.593 -0.748,0.483 -1.429,0.977 -2.044,1.483 -0.614,0.505 -1.428,1.154 -2.438,1.945 -0.748,0.614 -1.319,1.307 -1.714,2.076 -0.396,0.769 -0.505,1.703 -0.33,2.802 0.131,1.713 0.352,3.746 0.659,6.097 0.307,2.35 0.681,4.888 1.12,7.614 0.44,2.724 0.924,5.547 1.45,8.47 0.528,2.922 1.1,5.834 1.714,8.734 0.615,2.901 1.242,5.691 1.879,8.371 0.637,2.68 1.263,5.142 1.879,7.383 0.438,1.274 0.999,2.032 1.68,2.274 0.681,0.241 1.704,0.165 3.066,-0.23 1.361,-0.353 2.835,-0.847 4.417,-1.483 1.582,-0.638 2.966,-1.352 4.152,-2.142 C 1.966,51.602 2.68,50.876 2.967,50.262 3.252,49.646 3.197,48.768 2.802,47.625 1.922,44.988 1.032,42.088 0.132,38.924 -0.77,35.76 -1.671,32.507 -2.57,29.168 -3.472,25.828 -4.329,22.5 -5.142,19.182 -5.955,15.863 -6.713,12.689 -7.416,9.657 c 2.021,0.351 3.911,0.615 5.67,0.791 1.757,0.175 3.668,0.329 5.734,0.461 1.23,0.088 2.164,0.01 2.802,-0.23 C 7.426,10.437 8.009,9.898 8.537,9.063 9.063,8.272 9.492,7.47 9.822,6.658 10.151,5.844 10.404,5.064 10.58,4.317 10.887,3.395 10.964,2.779 10.811,2.472 10.656,2.164 9.898,1.878 8.537,1.615 5.768,1.087 2.923,0.549 0,0" /></g><g
           transform="translate(414.5879,578.9111)"
           id="g112"><path
             id="path114"
             style="fill:#0a8041;fill-opacity:1;fill-rule:nonzero;stroke:none"
             d="m 0,0 c 1.031,-1.516 2.054,-2.978 3.064,-4.384 1.011,-1.407 1.978,-2.702 2.901,-3.889 0.923,-1.186 1.735,-2.175 2.438,-2.966 0.747,-0.748 1.044,-1.351 0.891,-1.813 -0.154,-0.461 -0.715,-0.912 -1.681,-1.351 -0.572,-0.308 -1.242,-0.572 -2.01,-0.791 -0.77,-0.221 -1.528,-0.373 -2.275,-0.462 -1.142,-0.306 -2.307,-0.372 -3.493,-0.198 -1.187,0.177 -2.373,0.901 -3.56,2.176 -0.484,0.527 -1.143,1.252 -1.977,2.175 -0.836,0.923 -1.747,1.978 -2.736,3.164 -0.989,1.187 -2.022,2.449 -3.098,3.791 -1.077,1.34 -2.076,2.669 -2.999,3.987 -0.571,-2.9 -1.077,-5.559 -1.517,-7.976 -0.439,-2.417 -0.835,-4.614 -1.186,-6.591 0,-0.66 -0.155,-1.109 -0.461,-1.351 -0.308,-0.241 -0.748,-0.352 -1.319,-0.33 -0.571,0.022 -1.263,0.154 -2.076,0.395 -0.813,0.243 -1.704,0.495 -2.67,0.758 -1.977,0.528 -3.405,1.187 -4.285,1.978 -0.878,0.791 -1.273,1.999 -1.185,3.625 0.044,1.538 0.175,3.549 0.395,6.032 0.22,2.482 0.505,5.218 0.857,8.207 0.352,2.987 0.748,6.119 1.186,9.393 0.44,3.273 0.901,6.482 1.384,9.624 0.484,3.141 0.967,6.119 1.45,8.931 0.483,2.812 0.945,5.251 1.385,7.318 0.351,1.229 0.878,1.987 1.582,2.274 0.702,0.285 1.691,0.23 2.967,-0.165 1.405,-0.353 2.91,-0.88 4.514,-1.582 1.604,-0.704 2.999,-1.451 4.186,-2.242 0.659,-0.439 1.186,-0.823 1.582,-1.153 0.395,-0.33 0.682,-0.67 0.857,-1.022 0.175,-0.352 0.242,-0.736 0.198,-1.153 -0.044,-0.418 -0.155,-0.913 -0.33,-1.484 -0.659,-2.241 -1.318,-4.801 -1.977,-7.679 -0.659,-2.878 -1.362,-6.031 -2.109,-9.459 1.845,2.021 3.844,4.186 5.998,6.493 2.152,2.307 4.252,4.581 6.296,6.822 2.042,2.241 3.954,4.373 5.734,6.394 1.779,2.021 3.24,3.735 4.383,5.142 0.747,0.966 1.45,1.45 2.11,1.45 0.746,0 1.582,-0.396 2.504,-1.187 0.967,-0.835 1.769,-1.757 2.406,-2.768 0.637,-1.011 1.241,-2.11 1.814,-3.296 0.35,-0.967 0.471,-1.912 0.362,-2.834 C 20.39,31.08 19.917,29.937 19.082,28.575 18.071,26.904 16.72,25.048 15.028,23.005 13.336,20.961 11.49,18.874 9.491,16.743 7.491,14.611 5.415,12.491 3.263,10.382 1.108,8.272 -0.935,6.295 -2.868,4.449 -1.989,2.999 -1.033,1.516 0,0" /></g><g
           transform="translate(156.7378,282.8447)"
           id="g116"><path
             id="path118"
             style="fill:#0a8041;fill-opacity:1;fill-rule:nonzero;stroke:none"
             d="m 0,0 c 0.644,0.112 1.295,0.145 1.955,0.096 0.658,-0.048 1.286,-0.161 1.882,-0.338 0.595,-0.177 1.133,-0.427 1.616,-0.747 2.702,-1.641 5.058,-2.702 7.069,-3.185 2.01,-0.483 3.466,-0.371 4.367,0.338 0.354,0.224 0.426,0.53 0.217,0.916 -0.209,0.386 -0.611,0.813 -1.206,1.278 -0.595,0.467 -1.336,0.982 -2.22,1.545 -0.885,0.563 -1.817,1.15 -2.798,1.762 C 9.9,2.275 8.919,2.902 7.937,3.546 6.957,4.189 6.064,4.85 5.26,5.524 4.391,6.231 3.611,7.028 2.92,7.913 2.228,8.798 1.689,9.763 1.303,10.809 c -0.386,1.045 -0.595,2.163 -0.628,3.353 -0.031,1.19 0.162,2.429 0.58,3.716 0.29,1.094 0.78,2.268 1.472,3.522 0.691,1.254 1.503,2.477 2.437,3.667 0.932,1.191 1.961,2.3 3.088,3.33 1.125,1.029 2.268,1.898 3.425,2.606 0.419,0.29 0.933,0.57 1.545,0.844 0.611,0.273 1.295,0.474 2.05,0.603 0.756,0.129 1.577,0.169 2.461,0.121 0.885,-0.048 1.81,-0.217 2.775,-0.507 1.448,-0.515 2.895,-1.142 4.343,-1.881 1.448,-0.741 2.654,-1.578 3.619,-2.51 0.643,-0.579 1.134,-1.166 1.471,-1.761 0.339,-0.596 0.58,-1.182 0.725,-1.762 0.145,-0.579 0.225,-1.133 0.241,-1.665 0.016,-0.53 0.024,-1.037 0.024,-1.519 -0.097,-0.868 -0.258,-1.819 -0.482,-2.847 -0.226,-1.03 -0.483,-2.067 -0.772,-3.113 -0.29,-1.045 -0.612,-2.05 -0.966,-3.016 C 28.357,11.025 28.004,10.188 27.649,9.481 27.295,8.838 26.909,8.436 26.492,8.275 26.074,8.114 25.494,8.179 24.755,8.468 c -4.376,1.545 -6.402,3.651 -6.08,6.322 0.031,0.546 0.136,1.182 0.313,1.905 0.177,0.724 0.353,1.449 0.531,2.172 0.177,0.724 0.33,1.415 0.459,2.074 0.127,0.66 0.168,1.199 0.12,1.618 -0.048,0.417 -0.202,0.659 -0.458,0.723 -0.258,0.065 -0.692,-0.113 -1.303,-0.53 -0.515,-0.29 -1.094,-0.725 -1.737,-1.304 -0.644,-0.579 -1.263,-1.238 -1.858,-1.978 -0.596,-0.741 -1.127,-1.544 -1.593,-2.412 -0.466,-0.869 -0.78,-1.738 -0.941,-2.606 -0.161,-0.869 -0.145,-1.722 0.049,-2.557 0.193,-0.837 0.659,-1.578 1.399,-2.221 0.933,-0.868 1.97,-1.689 3.113,-2.461 1.141,-0.772 2.283,-1.52 3.425,-2.243 1.142,-0.724 2.221,-1.44 3.234,-2.148 1.012,-0.708 1.849,-1.439 2.509,-2.195 0.659,-0.756 1.077,-1.544 1.254,-2.364 0.177,-0.822 0.008,-1.698 -0.506,-2.63 -0.322,-0.676 -0.772,-1.4 -1.352,-2.172 -0.578,-0.773 -1.351,-1.488 -2.316,-2.148 -0.965,-0.659 -2.14,-1.213 -3.522,-1.665 -1.384,-0.449 -3.04,-0.69 -4.971,-0.723 -2.574,-0.064 -5.082,0.394 -7.527,1.376 -2.445,0.98 -4.97,2.678 -7.576,5.091 -1.382,1.189 -2.106,2.074 -2.171,2.653 0,0.611 0.306,1.094 0.917,1.448 C -1.254,-0.282 -0.643,-0.113 0,0" /></g><g
           transform="translate(203.978,305.1855)"
           id="g120"><path
             id="path122"
             style="fill:#0a8041;fill-opacity:1;fill-rule:nonzero;stroke:none"
             d="m 0,0 c -0.836,-0.788 -1.673,-1.857 -2.508,-3.209 -0.838,-1.351 -1.617,-2.854 -2.341,-4.511 -0.724,-1.657 -1.312,-3.258 -1.761,-4.801 -0.451,-1.513 -0.772,-3.081 -0.966,-4.706 -0.193,-1.624 -0.257,-3.135 -0.193,-4.535 0.064,-1.399 0.29,-2.598 0.676,-3.595 0.386,-0.997 0.949,-1.609 1.689,-1.834 0.675,-0.225 1.383,-0.08 2.123,0.434 0.74,0.515 1.479,1.304 2.219,2.365 0.741,1.062 1.44,2.372 2.1,3.932 0.659,1.561 1.231,3.258 1.713,5.092 0.417,1.511 0.755,3.176 1.013,4.994 0.257,1.817 0.386,3.514 0.386,5.091 0,1.608 -0.153,2.983 -0.458,4.126 C 3.386,-0.016 2.911,0.651 2.269,0.845 1.592,1.069 0.836,0.788 0,0 m 12.715,2.51 c 0.563,-1.111 0.973,-2.373 1.231,-3.788 0.353,-2.349 0.434,-4.898 0.241,-7.649 -0.192,-2.75 -0.668,-5.484 -1.424,-8.203 -0.756,-2.719 -1.784,-5.284 -3.088,-7.696 -1.302,-2.413 -2.903,-4.456 -4.801,-6.128 -1.287,-0.998 -2.638,-1.665 -4.053,-2.003 -1.416,-0.338 -3.04,-0.41 -4.874,-0.218 -1.223,0.13 -2.477,0.331 -3.764,0.604 -1.287,0.273 -2.461,0.682 -3.522,1.23 -0.869,0.45 -1.722,1.029 -2.557,1.737 -0.838,0.708 -1.497,1.512 -1.979,2.413 -0.772,1.48 -1.351,3.153 -1.737,5.018 -0.386,1.866 -0.563,3.828 -0.531,5.888 0.032,2.058 0.274,4.157 0.724,6.297 0.451,2.139 1.109,4.222 1.978,6.249 0.869,2.026 1.938,3.948 3.209,5.766 1.27,1.817 2.742,3.451 4.415,4.898 1.126,0.868 2.469,1.527 4.029,1.978 1.56,0.451 3.048,0.563 4.464,0.338 C 2.509,8.952 4.254,8.501 5.912,7.891 7.568,7.278 8.943,6.539 10.038,5.67 11.259,4.673 12.152,3.62 12.715,2.51" /></g><g
           transform="translate(245.4033,312.3516)"
           id="g124"><path
             id="path126"
             style="fill:#0a8041;fill-opacity:1;fill-rule:nonzero;stroke:none"
             d="m 0,0 c 1.688,0.387 3.458,0.74 5.308,1.062 1.85,0.321 3.747,0.603 5.694,0.844 1.946,0.241 3.884,0.394 5.814,0.458 1.834,0.032 3.008,-0.676 3.523,-2.123 0.417,-0.771 0.707,-1.471 0.869,-2.098 0.16,-0.627 0.321,-1.312 0.482,-2.051 0.128,-0.837 0.064,-1.4 -0.193,-1.69 C 21.239,-5.887 20.645,-6.097 19.712,-6.225 17.782,-6.45 15.786,-6.676 13.728,-6.9 11.669,-7.126 9.498,-7.399 7.214,-7.721 6.731,-9.168 6.28,-10.673 5.863,-12.232 c -0.419,-1.561 -0.885,-3.194 -1.4,-4.898 0.965,0.128 1.931,0.225 2.895,0.29 0.966,0.064 1.995,0.111 3.089,0.145 0.9,0.031 1.608,-0.049 2.123,-0.242 0.514,-0.193 0.949,-0.612 1.303,-1.254 0.386,-0.645 0.683,-1.28 0.893,-1.907 0.209,-0.627 0.393,-1.263 0.555,-1.906 0.257,-0.74 0.281,-1.238 0.072,-1.496 -0.209,-0.258 -0.765,-0.482 -1.665,-0.675 -1.93,-0.354 -3.901,-0.692 -5.911,-1.013 -2.011,-0.323 -3.949,-0.676 -5.814,-1.062 -0.258,-1.03 -0.5,-2.003 -0.724,-2.92 -0.226,-0.917 -0.467,-1.825 -0.724,-2.726 1.512,0.257 2.951,0.466 4.319,0.627 1.367,0.161 2.854,0.29 4.463,0.386 0.9,0.065 1.6,0 2.099,-0.192 0.499,-0.194 0.925,-0.579 1.279,-1.158 0.386,-0.644 0.683,-1.247 0.892,-1.81 0.209,-0.563 0.442,-1.134 0.7,-1.713 0.161,-0.644 0.161,-1.086 0,-1.327 -0.161,-0.241 -0.675,-0.443 -1.544,-0.604 -2.059,-0.385 -4.15,-0.788 -6.273,-1.206 -2.123,-0.418 -4.15,-0.803 -6.08,-1.158 -1.287,-0.321 -2.26,-0.393 -2.919,-0.217 -0.66,0.177 -1.231,0.427 -1.713,0.747 -0.548,0.355 -1.07,0.716 -1.568,1.086 -0.5,0.371 -1.086,0.845 -1.762,1.424 -0.547,0.45 -0.973,0.981 -1.279,1.592 -0.305,0.611 -0.425,1.352 -0.361,2.221 l 4.584,32.089 C -3.225,-0.756 -1.689,-0.386 0,0" /></g><g
           transform="translate(286.7573,308.4434)"
           id="g128"><path
             id="path130"
             style="fill:#0a8041;fill-opacity:1;fill-rule:nonzero;stroke:none"
             d="M 0,0 C 1.688,2.154 3.209,3.988 4.56,5.501 5.203,6.24 5.863,6.61 6.538,6.61 6.892,6.61 7.245,6.546 7.6,6.418 7.953,6.289 8.307,6.111 8.661,5.887 c 0.74,-0.579 1.464,-1.279 2.172,-2.1 0.707,-0.819 1.286,-1.584 1.737,-2.292 0.547,-0.868 0.739,-1.673 0.579,-2.412 -0.161,-0.74 -0.53,-1.448 -1.109,-2.123 -1.738,-2.027 -3.725,-4.336 -5.96,-6.925 -2.236,-2.59 -4.56,-5.301 -6.973,-8.131 1.351,-3.216 2.614,-6.217 3.788,-9 1.174,-2.782 2.227,-5.251 3.161,-7.406 0.739,-1.127 0.402,-1.785 -1.014,-1.978 -1.609,-0.161 -3.281,-0.161 -5.018,0 -0.869,0.096 -1.545,0.314 -2.027,0.651 -0.482,0.338 -0.997,0.893 -1.544,1.665 -0.386,0.546 -0.957,1.567 -1.713,3.064 -0.756,1.496 -1.649,3.337 -2.678,5.525 -1.737,-2.092 -3.306,-4.062 -4.705,-5.911 -1.399,-1.85 -2.662,-3.45 -3.788,-4.801 -0.772,-0.965 -1.785,-1.045 -3.04,-0.241 -0.45,0.257 -0.933,0.578 -1.447,0.965 -0.515,0.385 -1.005,0.795 -1.472,1.23 -0.466,0.435 -0.861,0.86 -1.182,1.278 -0.322,0.418 -0.499,0.773 -0.531,1.062 0,0.224 0.041,0.482 0.121,0.772 0.08,0.289 0.249,0.627 0.506,1.014 1.126,1.801 2.63,4.013 4.512,6.635 1.881,2.621 3.964,5.38 6.249,8.275 -0.772,1.641 -1.544,3.289 -2.317,4.946 -0.771,1.657 -1.504,3.257 -2.195,4.801 -0.692,1.544 -1.335,2.992 -1.93,4.344 -0.595,1.351 -1.102,2.54 -1.52,3.57 -0.386,1.03 -0.483,1.729 -0.29,2.1 0.194,0.369 0.756,0.618 1.689,0.747 0.257,0.032 0.499,0.049 0.724,0.049 h 0.723 1.4 c 0.483,0 0.981,-0.009 1.496,-0.025 0.515,-0.016 1.045,-0.041 1.592,-0.072 1.126,-0.161 1.995,-0.523 2.606,-1.086 0.611,-0.563 1.141,-1.311 1.592,-2.244 0.515,-1.319 1.086,-2.726 1.714,-4.222 0.627,-1.496 1.278,-3.064 1.954,-4.705 C -3.516,-4.521 -1.689,-2.156 0,0" /></g><g
           transform="translate(325.6006,281.3721)"
           id="g132"><path
             id="path134"
             style="fill:#0a8041;fill-opacity:1;fill-rule:nonzero;stroke:none"
             d="m 0,0 c 0.049,-0.675 -0.2,-1.513 -0.747,-2.509 -0.579,-1.158 -1.319,-2.22 -2.22,-3.184 -0.901,-0.965 -1.802,-1.77 -2.702,-2.413 -0.451,-0.29 -0.989,-0.562 -1.617,-0.821 -0.627,-0.257 -1.286,-0.466 -1.978,-0.627 -0.692,-0.16 -1.417,-0.273 -2.172,-0.338 -0.756,-0.064 -1.488,-0.064 -2.195,0 -1.513,0.097 -2.88,0.33 -4.102,0.7 -1.222,0.371 -2.316,0.715 -3.281,1.038 -0.869,0.353 -1.737,0.868 -2.606,1.544 -0.868,0.675 -1.544,1.464 -2.026,2.364 -0.836,1.383 -1.424,3.016 -1.761,4.898 -0.338,1.882 -0.459,3.892 -0.363,6.032 0.097,2.139 0.411,4.342 0.942,6.61 0.53,2.269 1.263,4.479 2.195,6.636 0.933,2.154 2.051,4.189 3.354,6.104 1.302,1.913 2.79,3.594 4.463,5.042 1.351,1.158 2.718,1.913 4.102,2.268 1.383,0.354 2.685,0.483 3.908,0.385 0.9,-0.095 1.834,-0.264 2.799,-0.505 0.965,-0.243 1.898,-0.532 2.798,-0.87 0.901,-0.336 1.754,-0.708 2.559,-1.109 0.803,-0.402 1.527,-0.813 2.171,-1.23 0.611,-0.516 1.117,-1.022 1.519,-1.52 0.402,-0.5 0.725,-1.007 0.966,-1.52 0.241,-0.516 0.41,-1.054 0.507,-1.618 0.095,-0.562 0.16,-1.166 0.192,-1.808 C 4.737,22.808 4.729,22.036 4.682,21.232 4.633,20.428 4.561,19.632 4.464,18.844 4.368,18.055 4.239,17.3 4.078,16.576 3.917,15.852 3.74,15.201 3.547,14.621 3.451,14.363 3.354,14.122 3.258,13.897 3.161,13.673 3.024,13.495 2.848,13.367 2.671,13.238 2.421,13.157 2.1,13.125 c -0.322,-0.031 -0.756,0 -1.303,0.098 -1.03,0.192 -1.914,0.458 -2.654,0.796 -0.741,0.336 -1.352,0.739 -1.833,1.206 -0.483,0.465 -0.87,1.004 -1.159,1.616 -0.29,0.611 -0.499,1.319 -0.628,2.123 -0.095,0.677 -0.144,1.304 -0.144,1.883 0.031,1.028 -0.017,1.961 -0.145,2.798 -0.129,0.836 -0.514,1.383 -1.158,1.641 -0.643,0.193 -1.399,-0.178 -2.267,-1.11 -0.87,-0.934 -1.754,-2.148 -2.655,-3.643 -0.901,-1.496 -1.746,-3.145 -2.533,-4.947 -0.789,-1.802 -1.407,-3.474 -1.857,-5.018 -0.419,-1.609 -0.733,-3.209 -0.942,-4.801 -0.21,-1.592 -0.282,-3.04 -0.218,-4.343 0.065,-1.303 0.274,-2.405 0.628,-3.306 0.354,-0.9 0.869,-1.447 1.544,-1.64 1.286,-0.418 3.249,0.724 5.887,3.426 1.899,1.93 4.375,2.461 7.432,1.592 C -0.684,1.175 -0.048,0.677 0,0" /></g><g
           transform="translate(345.916,309.4561)"
           id="g136"><path
             id="path138"
             style="fill:#0a8041;fill-opacity:1;fill-rule:nonzero;stroke:none"
             d="m 0,0 c 0.177,-0.45 0.152,-1.109 -0.072,-1.979 -0.451,-1.447 -0.942,-3.104 -1.472,-4.969 -0.531,-1.866 -1.061,-3.836 -1.593,-5.911 -0.53,-2.076 -1.053,-4.199 -1.568,-6.37 -0.515,-2.171 -1.013,-4.294 -1.496,-6.37 -0.483,-2.075 -0.925,-4.037 -1.326,-5.886 -0.403,-1.851 -0.748,-3.499 -1.038,-4.947 -0.162,-0.547 -0.379,-0.9 -0.652,-1.061 -0.273,-0.16 -0.829,-0.145 -1.664,0.048 -0.838,0.226 -1.634,0.451 -2.39,0.675 -0.755,0.226 -1.47,0.515 -2.147,0.869 -0.739,0.354 -1.229,0.764 -1.471,1.23 -0.241,0.467 -0.314,1.118 -0.217,1.955 0.065,1.125 0.201,2.582 0.411,4.367 0.209,1.786 0.466,3.74 0.771,5.863 0.306,2.124 0.652,4.358 1.037,6.708 0.386,2.347 0.781,4.647 1.183,6.9 0.402,2.251 0.811,4.383 1.23,6.394 0.418,2.009 0.804,3.77 1.159,5.283 0.289,0.932 0.682,1.504 1.182,1.714 0.498,0.208 1.246,0.169 2.243,-0.121 0.997,-0.258 2.076,-0.645 3.234,-1.159 1.157,-0.514 2.171,-1.061 3.04,-1.64 C -0.717,0.981 -0.177,0.45 0,0" /></g><g
           transform="translate(373.7344,306.1992)"
           id="g140"><path
             id="path142"
             style="fill:#0a8041;fill-opacity:1;fill-rule:nonzero;stroke:none"
             d="m 0,0 c -1.48,-0.145 -3.009,-0.298 -4.584,-0.458 -0.676,-2.703 -1.376,-5.501 -2.1,-8.396 -0.723,-2.896 -1.422,-5.767 -2.098,-8.614 -0.676,-2.846 -1.311,-5.621 -1.906,-8.324 -0.596,-2.702 -1.119,-5.228 -1.568,-7.576 -0.065,-0.449 -0.218,-0.747 -0.459,-0.893 -0.241,-0.144 -0.571,-0.209 -0.989,-0.192 -0.419,0.016 -0.901,0.104 -1.447,0.265 -0.548,0.162 -1.16,0.337 -1.834,0.531 -0.676,0.193 -1.287,0.402 -1.834,0.628 -0.547,0.224 -1.006,0.498 -1.375,0.819 -0.37,0.322 -0.636,0.7 -0.796,1.135 -0.162,0.433 -0.178,0.956 -0.049,1.568 0.097,1.544 0.289,3.442 0.579,5.694 0.29,2.251 0.635,4.631 1.038,7.141 0.401,2.509 0.844,5.043 1.326,7.601 0.484,2.556 0.966,4.928 1.449,7.117 -0.934,-0.161 -1.834,-0.298 -2.703,-0.41 -0.869,-0.114 -1.592,-0.25 -2.171,-0.41 -0.804,-0.194 -1.464,-0.218 -1.979,-0.074 -0.515,0.146 -1.094,0.556 -1.736,1.231 -0.676,0.677 -1.296,1.528 -1.859,2.558 -0.562,1.03 -1.021,1.898 -1.375,2.606 -0.386,0.739 -0.482,1.23 -0.289,1.472 0.193,0.241 0.595,0.441 1.206,0.603 1.898,0.386 4.045,0.739 6.442,1.062 2.396,0.32 4.84,0.61 7.335,0.868 2.492,0.258 4.937,0.473 7.335,0.651 C -4.046,8.38 -1.898,8.5 0,8.565 0.996,8.565 1.713,8.477 2.147,8.3 2.582,8.123 2.959,7.825 3.281,7.407 3.925,6.666 4.455,5.862 4.874,4.994 5.291,4.126 5.613,3.272 5.839,2.438 6.031,1.696 6.039,1.189 5.862,0.917 5.686,0.644 5.098,0.475 4.102,0.41 2.847,0.281 1.479,0.146 0,0" /></g><g
           transform="translate(385.4834,312.3516)"
           id="g144"><path
             id="path146"
             style="fill:#0a8041;fill-opacity:1;fill-rule:nonzero;stroke:none"
             d="m 0,0 c 1.688,0.387 3.458,0.74 5.308,1.062 1.849,0.321 3.747,0.603 5.694,0.844 1.945,0.241 3.885,0.394 5.814,0.458 1.834,0.032 3.008,-0.676 3.523,-2.123 0.418,-0.771 0.707,-1.471 0.868,-2.098 0.161,-0.627 0.321,-1.312 0.483,-2.051 0.128,-0.837 0.065,-1.4 -0.193,-1.69 C 21.239,-5.887 20.645,-6.097 19.712,-6.225 17.781,-6.45 15.786,-6.676 13.728,-6.9 11.669,-7.126 9.498,-7.399 7.214,-7.721 6.731,-9.168 6.28,-10.673 5.863,-12.232 5.444,-13.793 4.978,-15.426 4.464,-17.13 c 0.965,0.128 1.93,0.225 2.894,0.29 0.966,0.064 1.995,0.111 3.089,0.145 0.9,0.031 1.608,-0.049 2.123,-0.242 0.515,-0.193 0.949,-0.612 1.303,-1.254 0.386,-0.645 0.683,-1.28 0.893,-1.907 0.209,-0.627 0.393,-1.263 0.555,-1.906 0.256,-0.74 0.281,-1.238 0.072,-1.496 -0.209,-0.258 -0.765,-0.482 -1.665,-0.675 -1.93,-0.354 -3.901,-0.692 -5.911,-1.013 -2.011,-0.323 -3.949,-0.676 -5.814,-1.062 -0.258,-1.03 -0.5,-2.003 -0.724,-2.92 -0.226,-0.917 -0.467,-1.825 -0.724,-2.726 1.511,0.257 2.951,0.466 4.318,0.627 1.367,0.161 2.856,0.29 4.464,0.386 0.9,0.065 1.601,0 2.099,-0.192 0.499,-0.194 0.924,-0.579 1.279,-1.158 0.386,-0.644 0.683,-1.247 0.892,-1.81 0.209,-0.563 0.442,-1.134 0.7,-1.713 0.161,-0.644 0.161,-1.086 0,-1.327 -0.161,-0.241 -0.675,-0.443 -1.544,-0.604 -2.059,-0.385 -4.15,-0.788 -6.273,-1.206 -2.124,-0.418 -4.149,-0.803 -6.08,-1.158 -1.287,-0.321 -2.261,-0.393 -2.92,-0.217 -0.659,0.177 -1.23,0.427 -1.712,0.747 -0.548,0.355 -1.07,0.716 -1.568,1.086 -0.5,0.371 -1.086,0.845 -1.762,1.424 -0.547,0.45 -0.972,0.981 -1.278,1.592 -0.306,0.611 -0.427,1.352 -0.362,2.221 l 4.584,32.089 C -3.226,-0.756 -1.689,-0.386 0,0" /></g><g
           transform="translate(420.4434,283.2793)"
           id="g148"><path
             id="path150"
             style="fill:#0a8041;fill-opacity:1;fill-rule:nonzero;stroke:none"
             d="M 0,0 C 1.801,1.495 3.281,3.063 4.439,4.704 5.598,6.345 6.466,7.985 7.045,9.626 7.624,11.267 7.962,12.794 8.059,14.21 8.187,16.172 7.962,17.7 7.383,18.795 6.804,19.888 5.79,20.708 4.343,21.256 2.895,21.802 1.126,21.737 -0.965,21.062 -2.092,16.848 -3.089,12.69 -3.957,8.589 -4.825,4.486 -5.662,0.345 -6.466,-3.837 -3.957,-2.775 -1.803,-1.497 0,0 m -8.613,29.579 c 1.656,0.595 3.417,1.045 5.284,1.351 1.865,0.305 3.77,0.418 5.718,0.338 1.946,-0.081 3.828,-0.452 5.645,-1.11 1.818,-0.659 3.499,-1.649 5.043,-2.968 1.544,-1.319 2.847,-3.072 3.908,-5.259 0.901,-1.738 1.464,-3.636 1.689,-5.695 0.225,-2.058 0.104,-4.173 -0.362,-6.344 C 17.846,7.72 17.034,5.557 15.875,3.401 14.718,1.246 13.214,-0.781 11.364,-2.679 9.514,-4.577 7.318,-6.282 4.777,-7.794 c -2.542,-1.512 -5.421,-2.719 -8.637,-3.619 -1.641,-0.579 -3.362,-0.435 -5.163,0.434 -0.902,0.451 -1.69,0.893 -2.365,1.328 -0.675,0.434 -1.448,0.972 -2.316,1.616 -0.321,0.289 -0.627,0.571 -0.917,0.845 -0.289,0.272 -0.538,0.586 -0.748,0.941 -0.209,0.353 -0.345,0.787 -0.41,1.302 -0.064,0.514 -0.048,1.175 0.048,1.978 l 2.799,30.642 c 1.222,0.676 2.661,1.31 4.319,1.906" /></g></g></g></g></svg>