<?xml version="1.0" encoding="utf-8"?>
<!-- Generator: Adobe Illustrator 23.0.3, SVG Export Plug-In . SVG Version: 6.00 Build 0)  -->
<svg version="1.1" id="Layer_1" xmlns="http://www.w3.org/2000/svg" xmlns:xlink="http://www.w3.org/1999/xlink" x="0px" y="0px"
	 viewBox="0 0 867.04 595.28" style="enable-background:new 0 0 867.04 595.28;" xml:space="preserve">
<style type="text/css">
	.st0{fill:#0D8141;}
	.st1{fill:#F5EB22;stroke:#0E8141;stroke-width:3;stroke-miterlimit:10;}
</style>
<g>
	<path class="st0" d="M216.73,377.43c1.27-0.22,2.55-0.28,3.85-0.19c1.3,0.09,2.53,0.32,3.71,0.67c1.17,0.35,2.23,0.84,3.18,1.47
		c5.32,3.23,9.96,5.32,13.92,6.27c3.96,0.95,6.83,0.73,8.6-0.67c0.7-0.44,0.84-1.05,0.43-1.8c-0.41-0.76-1.2-1.6-2.38-2.52
		c-1.17-0.92-2.63-1.93-4.37-3.04c-1.74-1.11-3.58-2.26-5.51-3.47c-1.93-1.2-3.87-2.44-5.8-3.71c-1.93-1.27-3.69-2.57-5.27-3.9
		c-1.71-1.39-3.25-2.96-4.61-4.7c-1.36-1.74-2.42-3.64-3.18-5.7c-0.76-2.06-1.17-4.26-1.24-6.61c-0.06-2.34,0.32-4.78,1.14-7.32
		c0.57-2.15,1.54-4.47,2.9-6.94c1.36-2.47,2.96-4.88,4.8-7.22c1.84-2.34,3.86-4.53,6.08-6.56c2.22-2.03,4.47-3.74,6.75-5.13
		c0.82-0.57,1.84-1.12,3.04-1.66c1.2-0.54,2.55-0.93,4.04-1.19c1.49-0.25,3.1-0.33,4.85-0.24c1.74,0.09,3.56,0.43,5.47,1
		c2.85,1.01,5.7,2.25,8.55,3.71c2.85,1.46,5.23,3.11,7.13,4.94c1.27,1.14,2.23,2.3,2.9,3.47c0.67,1.17,1.14,2.33,1.43,3.47
		c0.29,1.14,0.44,2.23,0.48,3.28c0.03,1.05,0.05,2.04,0.05,2.99c-0.19,1.71-0.51,3.58-0.95,5.61c-0.44,2.03-0.95,4.07-1.52,6.13
		s-1.2,4.04-1.9,5.94c-0.7,1.9-1.39,3.55-2.09,4.94c-0.7,1.27-1.46,2.06-2.28,2.38c-0.82,0.32-1.96,0.19-3.42-0.38
		c-8.62-3.04-12.61-7.19-11.98-12.45c0.06-1.08,0.27-2.33,0.62-3.75c0.35-1.43,0.7-2.85,1.05-4.28c0.35-1.43,0.65-2.79,0.9-4.09
		c0.25-1.3,0.33-2.36,0.24-3.18c-0.1-0.82-0.4-1.3-0.9-1.43c-0.51-0.13-1.36,0.22-2.57,1.05c-1.01,0.57-2.16,1.43-3.42,2.57
		c-1.27,1.14-2.49,2.44-3.66,3.9c-1.17,1.46-2.22,3.04-3.14,4.75c-0.92,1.71-1.54,3.42-1.85,5.13c-0.32,1.71-0.28,3.39,0.1,5.04
		c0.38,1.65,1.3,3.11,2.76,4.37c1.84,1.71,3.88,3.33,6.13,4.85c2.25,1.52,4.5,2.99,6.75,4.42s4.37,2.84,6.37,4.23
		c2,1.39,3.64,2.84,4.94,4.32c1.3,1.49,2.12,3.04,2.47,4.66c0.35,1.62,0.01,3.34-1,5.18c-0.63,1.33-1.52,2.76-2.66,4.28
		c-1.14,1.52-2.66,2.93-4.56,4.23c-1.9,1.3-4.21,2.39-6.94,3.28c-2.73,0.89-5.99,1.36-9.79,1.43c-5.07,0.13-10.01-0.78-14.83-2.71
		c-4.82-1.93-9.79-5.27-14.92-10.03c-2.72-2.34-4.15-4.09-4.28-5.23c0-1.2,0.6-2.15,1.81-2.85
		C214.25,377.98,215.46,377.65,216.73,377.43z"/>
	<path class="st0" d="M334.81,328.48c1.11,2.19,1.92,4.67,2.42,7.46c0.7,4.63,0.85,9.65,0.47,15.06c-0.38,5.42-1.31,10.8-2.8,16.16
		c-1.49,5.35-3.52,10.41-6.08,15.16s-5.72,8.78-9.46,12.07c-2.54,1.97-5.2,3.28-7.98,3.94c-2.79,0.67-5.99,0.81-9.6,0.43
		c-2.41-0.25-4.88-0.65-7.41-1.19s-4.85-1.34-6.94-2.42c-1.71-0.89-3.39-2.03-5.04-3.42c-1.65-1.39-2.95-2.98-3.9-4.75
		c-1.52-2.91-2.66-6.21-3.42-9.88c-0.76-3.67-1.11-7.54-1.05-11.6c0.06-4.05,0.54-8.19,1.43-12.4c0.89-4.21,2.18-8.32,3.9-12.31
		c1.71-3.99,3.82-7.78,6.32-11.36c2.5-3.58,5.4-6.79,8.7-9.65c2.22-1.71,4.86-3.01,7.94-3.9c3.07-0.89,6-1.11,8.79-0.67
		c3.61,0.57,7.05,1.46,10.31,2.66c3.26,1.21,5.97,2.66,8.13,4.37C331.94,324.22,333.7,326.3,334.81,328.48z M309.77,333.43
		c-1.65,1.55-3.29,3.66-4.94,6.32c-1.65,2.66-3.18,5.62-4.61,8.89c-1.43,3.26-2.58,6.42-3.47,9.46c-0.89,2.98-1.52,6.07-1.9,9.27
		c-0.38,3.2-0.51,6.18-0.38,8.93c0.13,2.76,0.57,5.12,1.33,7.08c0.76,1.96,1.87,3.17,3.33,3.61c1.33,0.44,2.72,0.16,4.18-0.86
		c1.46-1.01,2.91-2.57,4.37-4.66c1.46-2.09,2.84-4.67,4.14-7.74c1.3-3.07,2.42-6.42,3.37-10.03c0.82-2.98,1.49-6.26,2-9.84
		c0.51-3.58,0.76-6.92,0.76-10.03c0-3.17-0.3-5.88-0.9-8.13c-0.6-2.25-1.54-3.56-2.8-3.94C312.9,331.32,311.42,331.87,309.77,333.43
		z"/>
	<path class="st0" d="M391.36,319.31c3.33-0.76,6.81-1.46,10.45-2.09c3.64-0.63,7.38-1.19,11.21-1.66c3.83-0.48,7.65-0.77,11.45-0.9
		c3.61-0.06,5.92,1.33,6.94,4.18c0.82,1.52,1.39,2.9,1.71,4.13c0.32,1.23,0.63,2.58,0.95,4.04c0.25,1.65,0.13,2.76-0.38,3.33
		c-0.51,0.57-1.68,0.98-3.52,1.23c-3.8,0.44-7.73,0.89-11.79,1.33c-4.06,0.44-8.33,0.98-12.83,1.62c-0.95,2.85-1.84,5.81-2.66,8.89
		c-0.82,3.07-1.74,6.29-2.76,9.65c1.9-0.25,3.8-0.44,5.7-0.57c1.9-0.13,3.93-0.22,6.08-0.28c1.77-0.06,3.17,0.1,4.18,0.48
		c1.01,0.38,1.87,1.2,2.57,2.47c0.76,1.27,1.34,2.52,1.76,3.75c0.41,1.23,0.77,2.49,1.09,3.75c0.51,1.46,0.55,2.44,0.14,2.95
		c-0.41,0.51-1.51,0.95-3.28,1.33c-3.8,0.7-7.68,1.36-11.64,2c-3.96,0.63-7.78,1.33-11.45,2.09c-0.51,2.03-0.98,3.94-1.43,5.75
		c-0.44,1.81-0.92,3.6-1.43,5.37c2.98-0.51,5.81-0.92,8.51-1.24c2.69-0.32,5.62-0.57,8.79-0.76c1.77-0.13,3.15,0,4.13,0.38
		c0.98,0.38,1.82,1.14,2.52,2.28c0.76,1.27,1.35,2.46,1.76,3.56c0.41,1.11,0.87,2.23,1.38,3.37c0.32,1.27,0.32,2.14,0,2.61
		c-0.32,0.48-1.33,0.87-3.04,1.19c-4.06,0.76-8.17,1.55-12.36,2.38c-4.18,0.82-8.17,1.58-11.97,2.28c-2.54,0.63-4.45,0.77-5.75,0.43
		c-1.3-0.35-2.42-0.84-3.37-1.47c-1.08-0.7-2.11-1.41-3.09-2.14c-0.98-0.73-2.14-1.66-3.47-2.8c-1.08-0.89-1.92-1.93-2.52-3.14
		c-0.6-1.2-0.84-2.66-0.71-4.37l9.03-63.2C385,320.8,388.03,320.07,391.36,319.31z"/>
	<path class="st0" d="M472.81,327.01c3.33-4.24,6.32-7.86,8.98-10.83c1.27-1.46,2.57-2.18,3.9-2.18c0.7,0,1.39,0.13,2.09,0.38
		c0.7,0.25,1.39,0.6,2.09,1.05c1.46,1.14,2.88,2.52,4.28,4.14c1.39,1.62,2.53,3.12,3.42,4.51c1.08,1.71,1.46,3.29,1.14,4.75
		c-0.32,1.46-1.05,2.85-2.19,4.18c-3.42,3.99-7.33,8.54-11.74,13.64c-4.4,5.1-8.98,10.44-13.73,16.01
		c2.66,6.34,5.15,12.25,7.46,17.73c2.31,5.48,4.39,10.34,6.23,14.59c1.46,2.22,0.79,3.52-2,3.9c-3.17,0.32-6.46,0.32-9.88,0
		c-1.71-0.19-3.04-0.62-3.99-1.28c-0.95-0.67-1.96-1.76-3.04-3.28c-0.76-1.08-1.89-3.09-3.37-6.04c-1.49-2.95-3.25-6.57-5.27-10.88
		c-3.42,4.12-6.51,8-9.27,11.64c-2.76,3.64-5.24,6.79-7.46,9.46c-1.52,1.9-3.52,2.06-5.99,0.47c-0.89-0.51-1.84-1.14-2.85-1.9
		c-1.01-0.76-1.98-1.57-2.9-2.42c-0.92-0.86-1.7-1.7-2.33-2.52c-0.63-0.82-0.98-1.52-1.05-2.09c0-0.44,0.08-0.95,0.24-1.52
		c0.16-0.57,0.49-1.23,1-2c2.22-3.55,5.18-7.9,8.89-13.07c3.71-5.16,7.81-10.6,12.31-16.3c-1.52-3.23-3.04-6.48-4.56-9.74
		c-1.52-3.26-2.96-6.42-4.32-9.46c-1.36-3.04-2.63-5.89-3.8-8.55c-1.17-2.66-2.17-5-2.99-7.03c-0.76-2.03-0.95-3.41-0.57-4.14
		c0.38-0.73,1.49-1.22,3.33-1.47c0.51-0.06,0.98-0.1,1.43-0.1c0.44,0,0.92,0,1.43,0h2.76c0.95,0,1.93,0.02,2.95,0.05
		c1.01,0.03,2.06,0.08,3.14,0.14c2.22,0.32,3.93,1.03,5.13,2.14c1.2,1.11,2.25,2.58,3.14,4.42c1.01,2.6,2.14,5.37,3.37,8.32
		c1.23,2.95,2.52,6.04,3.85,9.27C465.88,335.91,469.48,331.26,472.81,327.01z"/>
	<path class="st0" d="M549.31,380.33c0.1,1.33-0.4,2.98-1.47,4.94c-1.14,2.28-2.6,4.37-4.37,6.27c-1.78,1.9-3.55,3.48-5.32,4.75
		c-0.89,0.57-1.95,1.11-3.18,1.62c-1.23,0.51-2.53,0.92-3.9,1.24c-1.36,0.32-2.79,0.54-4.28,0.67c-1.49,0.13-2.93,0.13-4.32,0
		c-2.98-0.19-5.67-0.65-8.08-1.38c-2.41-0.73-4.56-1.41-6.46-2.04c-1.71-0.7-3.42-1.71-5.13-3.04c-1.71-1.33-3.04-2.88-3.99-4.66
		c-1.65-2.72-2.8-5.94-3.47-9.65c-0.67-3.71-0.9-7.66-0.71-11.88c0.19-4.21,0.81-8.55,1.85-13.02c1.05-4.47,2.49-8.82,4.32-13.07
		c1.84-4.24,4.04-8.25,6.61-12.02c2.57-3.77,5.5-7.08,8.79-9.93c2.66-2.28,5.35-3.77,8.08-4.47c2.72-0.7,5.29-0.95,7.7-0.76
		c1.77,0.19,3.61,0.52,5.51,1c1.9,0.48,3.74,1.05,5.51,1.71c1.77,0.67,3.45,1.39,5.04,2.19c1.58,0.79,3.01,1.6,4.28,2.42
		c1.2,1.01,2.2,2.01,2.99,2.99c0.79,0.98,1.43,1.98,1.9,2.99c0.47,1.01,0.81,2.08,1,3.18c0.19,1.11,0.32,2.3,0.38,3.56
		c0.06,1.46,0.05,2.98-0.05,4.56c-0.1,1.59-0.24,3.15-0.43,4.71c-0.19,1.55-0.44,3.04-0.76,4.47c-0.32,1.43-0.67,2.71-1.05,3.85
		c-0.19,0.51-0.38,0.98-0.57,1.43c-0.19,0.44-0.46,0.79-0.81,1.05c-0.35,0.25-0.84,0.41-1.47,0.48c-0.63,0.06-1.49,0-2.57-0.19
		c-2.03-0.38-3.77-0.9-5.23-1.57c-1.46-0.67-2.66-1.46-3.61-2.38c-0.95-0.92-1.71-1.98-2.28-3.18c-0.57-1.2-0.98-2.6-1.24-4.18
		c-0.19-1.33-0.28-2.57-0.28-3.71c0.06-2.03-0.03-3.86-0.28-5.51c-0.25-1.65-1.01-2.72-2.28-3.23c-1.27-0.38-2.76,0.35-4.47,2.19
		c-1.71,1.84-3.45,4.23-5.23,7.17c-1.78,2.95-3.44,6.19-4.99,9.74c-1.55,3.55-2.77,6.84-3.66,9.88c-0.82,3.17-1.44,6.32-1.85,9.46
		c-0.41,3.14-0.56,5.99-0.43,8.55c0.13,2.57,0.54,4.74,1.24,6.51c0.7,1.78,1.71,2.85,3.04,3.23c2.53,0.82,6.4-1.43,11.6-6.75
		c3.74-3.8,8.62-4.85,14.64-3.14C547.96,378.02,549.22,379,549.31,380.33z"/>
	<path class="st0" d="M589.32,325.01c0.35,0.89,0.3,2.19-0.14,3.9c-0.89,2.85-1.85,6.12-2.9,9.79c-1.05,3.68-2.09,7.56-3.14,11.64
		c-1.05,4.09-2.08,8.27-3.09,12.55c-1.01,4.28-2,8.46-2.95,12.55c-0.95,4.09-1.82,7.95-2.61,11.6c-0.79,3.64-1.47,6.89-2.04,9.74
		c-0.32,1.08-0.75,1.77-1.28,2.09c-0.54,0.32-1.63,0.28-3.28-0.1c-1.65-0.44-3.22-0.89-4.71-1.33c-1.49-0.44-2.9-1.01-4.23-1.71
		c-1.46-0.7-2.42-1.5-2.9-2.42c-0.48-0.92-0.62-2.2-0.43-3.85c0.13-2.22,0.4-5.09,0.81-8.6c0.41-3.52,0.92-7.37,1.52-11.55
		c0.6-4.18,1.28-8.58,2.04-13.21c0.76-4.62,1.54-9.15,2.33-13.59c0.79-4.43,1.6-8.63,2.42-12.59c0.82-3.96,1.58-7.43,2.28-10.41
		c0.57-1.84,1.35-2.96,2.33-3.37c0.98-0.41,2.45-0.33,4.42,0.24c1.96,0.51,4.09,1.27,6.37,2.28c2.28,1.01,4.28,2.09,5.99,3.23
		C587.91,323.08,588.97,324.13,589.32,325.01z"/>
	<path class="st0" d="M644.11,331.43c-2.91,0.28-5.92,0.59-9.03,0.9c-1.33,5.32-2.71,10.83-4.13,16.54
		c-1.43,5.7-2.8,11.36-4.13,16.96c-1.33,5.61-2.58,11.07-3.75,16.39c-1.17,5.32-2.2,10.3-3.09,14.92c-0.13,0.89-0.43,1.47-0.9,1.76
		c-0.47,0.28-1.13,0.41-1.95,0.38c-0.82-0.03-1.78-0.21-2.85-0.52c-1.08-0.32-2.28-0.67-3.61-1.05c-1.33-0.38-2.53-0.79-3.61-1.24
		c-1.08-0.44-1.98-0.98-2.71-1.62c-0.73-0.63-1.25-1.38-1.57-2.23c-0.32-0.85-0.35-1.88-0.1-3.09c0.19-3.04,0.57-6.78,1.14-11.21
		c0.57-4.43,1.25-9.12,2.04-14.06c0.79-4.94,1.66-9.93,2.61-14.97c0.95-5.04,1.9-9.71,2.85-14.02c-1.84,0.32-3.61,0.59-5.32,0.81
		c-1.71,0.22-3.14,0.49-4.28,0.81c-1.58,0.38-2.88,0.43-3.9,0.14c-1.01-0.29-2.16-1.09-3.42-2.42c-1.33-1.33-2.55-3.01-3.66-5.04
		c-1.11-2.03-2.01-3.74-2.71-5.13c-0.76-1.46-0.95-2.42-0.57-2.9c0.38-0.48,1.17-0.87,2.38-1.19c3.74-0.76,7.97-1.46,12.69-2.09
		c4.72-0.63,9.54-1.2,14.45-1.71c4.91-0.51,9.73-0.93,14.45-1.28c4.72-0.35,8.95-0.59,12.69-0.71c1.96,0,3.37,0.18,4.23,0.52
		c0.86,0.35,1.6,0.94,2.23,1.76c1.27,1.46,2.31,3.04,3.14,4.75c0.82,1.71,1.46,3.39,1.9,5.04c0.38,1.46,0.39,2.46,0.05,2.99
		c-0.35,0.54-1.51,0.87-3.47,1C649.72,330.88,647.03,331.14,644.11,331.43z"/>
	<path class="st0" d="M667.25,319.31c3.33-0.76,6.81-1.46,10.45-2.09c3.64-0.63,7.38-1.19,11.21-1.66c3.83-0.48,7.65-0.77,11.45-0.9
		c3.61-0.06,5.92,1.33,6.94,4.18c0.82,1.52,1.39,2.9,1.71,4.13c0.32,1.23,0.63,2.58,0.95,4.04c0.25,1.65,0.13,2.76-0.38,3.33
		c-0.51,0.57-1.68,0.98-3.52,1.23c-3.8,0.44-7.73,0.89-11.79,1.33c-4.06,0.44-8.33,0.98-12.83,1.62c-0.95,2.85-1.84,5.81-2.66,8.89
		c-0.83,3.07-1.74,6.29-2.76,9.65c1.9-0.25,3.8-0.44,5.7-0.57c1.9-0.13,3.93-0.22,6.08-0.28c1.77-0.06,3.17,0.1,4.18,0.48
		c1.01,0.38,1.87,1.2,2.57,2.47c0.76,1.27,1.34,2.52,1.76,3.75c0.41,1.23,0.77,2.49,1.09,3.75c0.51,1.46,0.55,2.44,0.14,2.95
		c-0.41,0.51-1.51,0.95-3.28,1.33c-3.8,0.7-7.68,1.36-11.64,2c-3.96,0.63-7.78,1.33-11.45,2.09c-0.51,2.03-0.98,3.94-1.43,5.75
		c-0.44,1.81-0.92,3.6-1.43,5.37c2.98-0.51,5.81-0.92,8.51-1.24c2.69-0.32,5.62-0.57,8.79-0.76c1.77-0.13,3.15,0,4.13,0.38
		c0.98,0.38,1.82,1.14,2.52,2.28c0.76,1.27,1.35,2.46,1.76,3.56c0.41,1.11,0.87,2.23,1.38,3.37c0.32,1.27,0.32,2.14,0,2.61
		c-0.32,0.48-1.33,0.87-3.04,1.19c-4.06,0.76-8.17,1.55-12.36,2.38c-4.18,0.82-8.17,1.58-11.97,2.28c-2.54,0.63-4.45,0.77-5.75,0.43
		c-1.3-0.35-2.42-0.84-3.37-1.47c-1.08-0.7-2.11-1.41-3.09-2.14c-0.98-0.73-2.14-1.66-3.47-2.8c-1.08-0.89-1.92-1.93-2.52-3.14
		c-0.6-1.2-0.84-2.66-0.71-4.37l9.03-63.2C660.9,320.8,663.93,320.07,667.25,319.31z"/>
	<path class="st0" d="M719.14,318.31c3.26-1.17,6.73-2.06,10.41-2.66c3.67-0.6,7.43-0.82,11.26-0.67c3.83,0.16,7.54,0.89,11.12,2.18
		c3.58,1.3,6.89,3.25,9.93,5.85c3.04,2.6,5.61,6.05,7.7,10.36c1.77,3.42,2.88,7.16,3.33,11.21c0.44,4.06,0.2,8.22-0.71,12.5
		c-0.92,4.28-2.52,8.54-4.8,12.78c-2.28,4.24-5.24,8.24-8.89,11.97c-3.64,3.74-7.97,7.1-12.97,10.08
		c-5.01,2.98-10.68,5.35-17.01,7.13c-3.23,1.14-6.62,0.86-10.17-0.85c-1.78-0.89-3.33-1.76-4.66-2.61
		c-1.33-0.86-2.85-1.92-4.56-3.18c-0.63-0.57-1.23-1.12-1.81-1.66c-0.57-0.54-1.06-1.15-1.47-1.85c-0.41-0.7-0.68-1.55-0.81-2.57
		c-0.13-1.01-0.1-2.31,0.09-3.9l5.51-60.35C713.04,320.74,715.88,319.49,719.14,318.31z M736.11,376.57
		c3.55-2.95,6.46-6.03,8.74-9.27c2.28-3.23,3.99-6.46,5.13-9.69c1.14-3.23,1.81-6.24,2-9.03c0.25-3.86-0.19-6.87-1.33-9.03
		c-1.14-2.15-3.14-3.77-5.99-4.85c-2.85-1.08-6.34-0.95-10.45,0.38c-2.22,8.3-4.18,16.49-5.89,24.57
		c-1.71,8.08-3.36,16.24-4.94,24.47C728.31,382.04,732.56,379.52,736.11,376.57z"/>
</g>
<g>
	<path class="st1" d="M210.38,373.14c1.27-0.22,2.55-0.28,3.85-0.19c1.3,0.09,2.53,0.32,3.71,0.67c1.17,0.35,2.23,0.84,3.18,1.47
		c5.32,3.23,9.96,5.32,13.92,6.27c3.96,0.95,6.83,0.73,8.6-0.67c0.7-0.44,0.84-1.05,0.43-1.8c-0.41-0.76-1.2-1.6-2.38-2.52
		c-1.17-0.92-2.63-1.93-4.37-3.04c-1.74-1.11-3.58-2.26-5.51-3.47c-1.93-1.2-3.87-2.44-5.8-3.71c-1.93-1.27-3.69-2.57-5.27-3.9
		c-1.71-1.39-3.25-2.96-4.61-4.7c-1.36-1.74-2.42-3.64-3.18-5.7c-0.76-2.06-1.17-4.26-1.24-6.61c-0.06-2.34,0.32-4.78,1.14-7.32
		c0.57-2.15,1.54-4.47,2.9-6.94c1.36-2.47,2.96-4.88,4.8-7.22c1.84-2.34,3.86-4.53,6.08-6.56c2.22-2.03,4.47-3.74,6.75-5.13
		c0.82-0.57,1.84-1.12,3.04-1.66c1.2-0.54,2.55-0.93,4.04-1.19c1.49-0.25,3.1-0.33,4.85-0.24c1.74,0.09,3.56,0.43,5.47,1
		c2.85,1.01,5.7,2.25,8.55,3.71c2.85,1.46,5.23,3.11,7.13,4.94c1.27,1.14,2.23,2.3,2.9,3.47c0.67,1.17,1.14,2.33,1.43,3.47
		c0.29,1.14,0.44,2.23,0.48,3.28c0.03,1.05,0.05,2.04,0.05,2.99c-0.19,1.71-0.51,3.58-0.95,5.61c-0.44,2.03-0.95,4.07-1.52,6.13
		c-0.57,2.06-1.2,4.04-1.9,5.94c-0.7,1.9-1.39,3.55-2.09,4.94c-0.7,1.27-1.46,2.06-2.28,2.38c-0.82,0.32-1.96,0.19-3.42-0.38
		c-8.62-3.04-12.61-7.19-11.98-12.45c0.06-1.08,0.27-2.33,0.62-3.75c0.35-1.43,0.7-2.85,1.05-4.28c0.35-1.43,0.65-2.79,0.9-4.09
		c0.25-1.3,0.33-2.36,0.24-3.18c-0.1-0.82-0.4-1.3-0.9-1.43c-0.51-0.13-1.36,0.22-2.57,1.05c-1.01,0.57-2.16,1.43-3.42,2.57
		c-1.27,1.14-2.49,2.44-3.66,3.9c-1.17,1.46-2.22,3.04-3.14,4.75c-0.92,1.71-1.54,3.42-1.85,5.13c-0.32,1.71-0.28,3.39,0.1,5.04
		c0.38,1.65,1.3,3.11,2.76,4.37c1.84,1.71,3.88,3.33,6.13,4.85c2.25,1.52,4.5,2.99,6.75,4.42s4.37,2.84,6.37,4.23
		c2,1.39,3.64,2.84,4.94,4.32c1.3,1.49,2.12,3.04,2.47,4.66c0.35,1.62,0.01,3.34-1,5.18c-0.63,1.33-1.52,2.76-2.66,4.28
		c-1.14,1.52-2.66,2.93-4.56,4.23c-1.9,1.3-4.21,2.39-6.94,3.28c-2.73,0.89-5.99,1.36-9.79,1.43c-5.07,0.13-10.01-0.78-14.83-2.71
		c-4.82-1.93-9.79-5.27-14.92-10.03c-2.72-2.34-4.15-4.09-4.28-5.23c0-1.2,0.6-2.15,1.81-2.85
		C207.91,373.69,209.11,373.36,210.38,373.14z"/>
	<path class="st1" d="M328.46,324.19c1.11,2.19,1.92,4.67,2.42,7.46c0.7,4.63,0.85,9.65,0.47,15.06c-0.38,5.42-1.31,10.8-2.8,16.16
		c-1.49,5.35-3.52,10.41-6.08,15.16s-5.72,8.78-9.46,12.07c-2.54,1.97-5.2,3.28-7.98,3.94c-2.79,0.67-5.99,0.81-9.6,0.43
		c-2.41-0.25-4.88-0.65-7.41-1.19c-2.53-0.54-4.85-1.34-6.94-2.42c-1.71-0.89-3.39-2.03-5.04-3.42c-1.65-1.39-2.95-2.98-3.9-4.75
		c-1.52-2.91-2.66-6.21-3.42-9.88c-0.76-3.67-1.11-7.54-1.05-11.6c0.06-4.05,0.54-8.19,1.43-12.4c0.89-4.21,2.18-8.32,3.9-12.31
		c1.71-3.99,3.82-7.78,6.32-11.36c2.5-3.58,5.4-6.79,8.7-9.65c2.22-1.71,4.86-3.01,7.94-3.9c3.07-0.89,6-1.11,8.79-0.67
		c3.61,0.57,7.05,1.46,10.31,2.66c3.26,1.21,5.97,2.66,8.13,4.37C325.6,319.93,327.35,322,328.46,324.19z M303.42,329.13
		c-1.65,1.55-3.29,3.66-4.94,6.32c-1.65,2.66-3.18,5.62-4.61,8.89c-1.43,3.26-2.58,6.42-3.47,9.46c-0.89,2.98-1.52,6.07-1.9,9.27
		c-0.38,3.2-0.51,6.18-0.38,8.93c0.13,2.76,0.57,5.12,1.33,7.08c0.76,1.96,1.87,3.17,3.33,3.61c1.33,0.44,2.72,0.16,4.18-0.86
		c1.46-1.01,2.91-2.57,4.37-4.66s2.84-4.67,4.14-7.74c1.3-3.07,2.42-6.42,3.37-10.03c0.82-2.98,1.49-6.26,2-9.84
		c0.51-3.58,0.76-6.92,0.76-10.03c0-3.17-0.3-5.88-0.9-8.13c-0.6-2.25-1.54-3.56-2.8-3.94
		C306.56,327.03,305.07,327.58,303.42,329.13z"/>
	<path class="st1" d="M385.01,315.02c3.33-0.76,6.81-1.46,10.45-2.09c3.64-0.63,7.38-1.19,11.21-1.66c3.83-0.48,7.65-0.77,11.45-0.9
		c3.61-0.06,5.92,1.33,6.94,4.18c0.82,1.52,1.39,2.9,1.71,4.13c0.32,1.23,0.63,2.58,0.95,4.04c0.25,1.65,0.13,2.76-0.38,3.33
		c-0.51,0.57-1.68,0.98-3.52,1.23c-3.8,0.44-7.73,0.89-11.79,1.33c-4.06,0.44-8.33,0.98-12.83,1.62c-0.95,2.85-1.84,5.81-2.66,8.89
		c-0.82,3.07-1.74,6.29-2.76,9.65c1.9-0.25,3.8-0.44,5.7-0.57c1.9-0.13,3.93-0.22,6.08-0.28c1.77-0.06,3.17,0.1,4.18,0.48
		c1.01,0.38,1.87,1.2,2.57,2.47c0.76,1.27,1.34,2.52,1.76,3.75c0.41,1.23,0.77,2.49,1.09,3.75c0.51,1.46,0.55,2.44,0.14,2.95
		c-0.41,0.51-1.51,0.95-3.28,1.33c-3.8,0.7-7.68,1.36-11.64,2c-3.96,0.63-7.78,1.33-11.45,2.09c-0.51,2.03-0.98,3.94-1.43,5.75
		c-0.44,1.81-0.92,3.6-1.43,5.37c2.98-0.51,5.81-0.92,8.51-1.24c2.69-0.32,5.62-0.57,8.79-0.76c1.77-0.13,3.15,0,4.13,0.38
		c0.98,0.38,1.82,1.14,2.52,2.28c0.76,1.27,1.35,2.46,1.76,3.56c0.41,1.11,0.87,2.23,1.38,3.37c0.32,1.27,0.32,2.14,0,2.61
		c-0.32,0.48-1.33,0.87-3.04,1.19c-4.06,0.76-8.17,1.55-12.36,2.38c-4.18,0.82-8.17,1.58-11.97,2.28c-2.54,0.63-4.45,0.77-5.75,0.43
		c-1.3-0.35-2.42-0.84-3.37-1.47c-1.08-0.7-2.11-1.41-3.09-2.14c-0.98-0.73-2.14-1.66-3.47-2.8c-1.08-0.89-1.92-1.93-2.52-3.14
		c-0.6-1.2-0.84-2.66-0.71-4.37l9.03-63.2C378.66,316.51,381.68,315.78,385.01,315.02z"/>
	<path class="st1" d="M466.46,322.72c3.33-4.24,6.32-7.86,8.98-10.83c1.27-1.46,2.57-2.18,3.9-2.18c0.7,0,1.39,0.13,2.09,0.38
		c0.7,0.25,1.39,0.6,2.09,1.05c1.46,1.14,2.88,2.52,4.28,4.14c1.39,1.62,2.53,3.12,3.42,4.51c1.08,1.71,1.46,3.29,1.14,4.75
		c-0.32,1.46-1.05,2.85-2.19,4.18c-3.42,3.99-7.33,8.54-11.74,13.64c-4.4,5.1-8.98,10.44-13.73,16.01
		c2.66,6.34,5.15,12.25,7.46,17.73c2.31,5.48,4.39,10.34,6.23,14.59c1.46,2.22,0.79,3.52-2,3.9c-3.17,0.32-6.46,0.32-9.88,0
		c-1.71-0.19-3.04-0.62-3.99-1.28c-0.95-0.67-1.96-1.76-3.04-3.28c-0.76-1.08-1.89-3.09-3.37-6.04s-3.25-6.57-5.27-10.88
		c-3.42,4.12-6.51,8-9.27,11.64c-2.76,3.64-5.24,6.79-7.46,9.46c-1.52,1.9-3.52,2.06-5.99,0.47c-0.89-0.51-1.84-1.14-2.85-1.9
		c-1.01-0.76-1.98-1.57-2.9-2.42c-0.92-0.86-1.7-1.7-2.33-2.52c-0.63-0.82-0.98-1.52-1.05-2.09c0-0.44,0.08-0.95,0.24-1.52
		c0.16-0.57,0.49-1.23,1-2c2.22-3.55,5.18-7.9,8.89-13.07c3.71-5.16,7.81-10.6,12.31-16.3c-1.52-3.23-3.04-6.48-4.56-9.74
		c-1.52-3.26-2.96-6.42-4.32-9.46c-1.36-3.04-2.63-5.89-3.8-8.55c-1.17-2.66-2.17-5-2.99-7.03c-0.76-2.03-0.95-3.41-0.57-4.14
		c0.38-0.73,1.49-1.22,3.33-1.47c0.51-0.06,0.98-0.1,1.43-0.1c0.44,0,0.92,0,1.43,0h2.76c0.95,0,1.93,0.02,2.95,0.05
		c1.01,0.03,2.06,0.08,3.14,0.14c2.22,0.32,3.93,1.03,5.13,2.14c1.2,1.11,2.25,2.58,3.14,4.42c1.01,2.6,2.14,5.37,3.37,8.32
		c1.23,2.95,2.52,6.04,3.85,9.27C459.53,331.62,463.13,326.96,466.46,322.72z"/>
	<path class="st1" d="M542.96,376.03c0.1,1.33-0.4,2.98-1.47,4.94c-1.14,2.28-2.6,4.37-4.37,6.27c-1.78,1.9-3.55,3.48-5.32,4.75
		c-0.89,0.57-1.95,1.11-3.18,1.62c-1.23,0.51-2.53,0.92-3.9,1.24c-1.36,0.32-2.79,0.54-4.28,0.67c-1.49,0.13-2.93,0.13-4.32,0
		c-2.98-0.19-5.67-0.65-8.08-1.38c-2.41-0.73-4.56-1.41-6.46-2.04c-1.71-0.7-3.42-1.71-5.13-3.04c-1.71-1.33-3.04-2.88-3.99-4.66
		c-1.65-2.72-2.8-5.94-3.47-9.65c-0.67-3.71-0.9-7.66-0.71-11.88c0.19-4.21,0.81-8.55,1.85-13.02c1.05-4.47,2.49-8.82,4.32-13.07
		c1.84-4.24,4.04-8.25,6.61-12.02c2.57-3.77,5.5-7.08,8.79-9.93c2.66-2.28,5.35-3.77,8.08-4.47c2.72-0.7,5.29-0.95,7.7-0.76
		c1.77,0.19,3.61,0.52,5.51,1c1.9,0.48,3.74,1.05,5.51,1.71c1.77,0.67,3.45,1.39,5.04,2.19c1.58,0.79,3.01,1.6,4.28,2.42
		c1.2,1.01,2.2,2.01,2.99,2.99c0.79,0.98,1.43,1.98,1.9,2.99c0.47,1.01,0.81,2.08,1,3.18c0.19,1.11,0.32,2.3,0.38,3.56
		c0.06,1.46,0.05,2.98-0.05,4.56c-0.1,1.59-0.24,3.15-0.43,4.71c-0.19,1.55-0.44,3.04-0.76,4.47c-0.32,1.43-0.67,2.71-1.05,3.85
		c-0.19,0.51-0.38,0.98-0.57,1.43c-0.19,0.44-0.46,0.79-0.81,1.05c-0.35,0.25-0.84,0.41-1.47,0.48c-0.63,0.06-1.49,0-2.57-0.19
		c-2.03-0.38-3.77-0.9-5.23-1.57c-1.46-0.67-2.66-1.46-3.61-2.38c-0.95-0.92-1.71-1.98-2.28-3.18c-0.57-1.2-0.98-2.6-1.24-4.18
		c-0.19-1.33-0.28-2.57-0.28-3.71c0.06-2.03-0.03-3.86-0.28-5.51c-0.25-1.65-1.01-2.72-2.28-3.23c-1.27-0.38-2.76,0.35-4.47,2.19
		c-1.71,1.84-3.45,4.23-5.23,7.17c-1.78,2.95-3.44,6.19-4.99,9.74c-1.55,3.55-2.77,6.84-3.66,9.88c-0.83,3.17-1.44,6.32-1.85,9.46
		c-0.41,3.14-0.56,5.99-0.43,8.55c0.13,2.57,0.54,4.74,1.24,6.51c0.7,1.78,1.71,2.85,3.04,3.23c2.53,0.82,6.4-1.43,11.6-6.75
		c3.74-3.8,8.62-4.85,14.64-3.14C541.62,373.72,542.87,374.7,542.96,376.03z"/>
	<path class="st1" d="M582.97,320.72c0.35,0.89,0.3,2.19-0.14,3.9c-0.89,2.85-1.85,6.12-2.9,9.79c-1.05,3.68-2.09,7.56-3.14,11.64
		c-1.05,4.09-2.08,8.27-3.09,12.55c-1.01,4.28-2,8.46-2.95,12.55c-0.95,4.09-1.82,7.95-2.61,11.6c-0.79,3.64-1.47,6.89-2.04,9.74
		c-0.32,1.08-0.75,1.77-1.28,2.09c-0.54,0.32-1.63,0.28-3.28-0.1c-1.65-0.44-3.22-0.89-4.71-1.33c-1.49-0.44-2.9-1.01-4.23-1.71
		c-1.46-0.7-2.42-1.5-2.9-2.42c-0.48-0.92-0.62-2.2-0.43-3.85c0.13-2.22,0.4-5.09,0.81-8.6c0.41-3.52,0.92-7.37,1.52-11.55
		c0.6-4.18,1.28-8.58,2.04-13.21c0.76-4.62,1.54-9.15,2.33-13.59c0.79-4.43,1.6-8.63,2.42-12.59c0.82-3.96,1.58-7.43,2.28-10.41
		c0.57-1.84,1.35-2.96,2.33-3.37c0.98-0.41,2.45-0.33,4.42,0.24c1.96,0.51,4.09,1.27,6.37,2.28c2.28,1.01,4.28,2.09,5.99,3.23
		C581.56,318.79,582.63,319.83,582.97,320.72z"/>
	<path class="st1" d="M637.76,327.14c-2.91,0.28-5.92,0.59-9.03,0.9c-1.33,5.32-2.71,10.83-4.13,16.54
		c-1.43,5.7-2.8,11.36-4.13,16.96c-1.33,5.61-2.58,11.07-3.75,16.39c-1.17,5.32-2.2,10.3-3.09,14.92c-0.13,0.89-0.43,1.47-0.9,1.76
		c-0.47,0.28-1.13,0.41-1.95,0.38c-0.83-0.03-1.78-0.21-2.85-0.52c-1.08-0.32-2.28-0.67-3.61-1.05s-2.53-0.79-3.61-1.24
		c-1.08-0.44-1.98-0.98-2.71-1.62c-0.73-0.63-1.25-1.38-1.57-2.23c-0.32-0.85-0.35-1.88-0.1-3.09c0.19-3.04,0.57-6.78,1.14-11.21
		c0.57-4.43,1.25-9.12,2.04-14.06c0.79-4.94,1.66-9.93,2.61-14.97c0.95-5.04,1.9-9.71,2.85-14.02c-1.84,0.32-3.61,0.59-5.32,0.81
		c-1.71,0.22-3.14,0.49-4.28,0.81c-1.58,0.38-2.88,0.43-3.9,0.14c-1.01-0.29-2.16-1.09-3.42-2.42c-1.33-1.33-2.55-3.01-3.66-5.04
		c-1.11-2.03-2.01-3.74-2.71-5.13c-0.76-1.46-0.95-2.42-0.57-2.9c0.38-0.48,1.17-0.87,2.38-1.19c3.74-0.76,7.97-1.46,12.69-2.09
		c4.72-0.63,9.54-1.2,14.45-1.71c4.91-0.51,9.73-0.93,14.45-1.28c4.72-0.35,8.95-0.59,12.69-0.71c1.96,0,3.37,0.18,4.23,0.52
		c0.86,0.35,1.6,0.94,2.23,1.76c1.27,1.46,2.31,3.04,3.14,4.75c0.82,1.71,1.46,3.39,1.9,5.04c0.38,1.46,0.39,2.46,0.05,2.99
		c-0.35,0.54-1.51,0.87-3.47,1C643.37,326.58,640.68,326.85,637.76,327.14z"/>
	<path class="st1" d="M660.9,315.02c3.33-0.76,6.81-1.46,10.45-2.09c3.64-0.63,7.38-1.19,11.21-1.66c3.83-0.48,7.65-0.77,11.45-0.9
		c3.61-0.06,5.92,1.33,6.94,4.18c0.82,1.52,1.39,2.9,1.71,4.13c0.32,1.23,0.63,2.58,0.95,4.04c0.25,1.65,0.13,2.76-0.38,3.33
		c-0.51,0.57-1.68,0.98-3.52,1.23c-3.8,0.44-7.73,0.89-11.79,1.33c-4.06,0.44-8.33,0.98-12.83,1.62c-0.95,2.85-1.84,5.81-2.66,8.89
		c-0.82,3.07-1.74,6.29-2.76,9.65c1.9-0.25,3.8-0.44,5.7-0.57c1.9-0.13,3.93-0.22,6.08-0.28c1.77-0.06,3.17,0.1,4.18,0.48
		c1.01,0.38,1.87,1.2,2.57,2.47c0.76,1.27,1.34,2.52,1.76,3.75c0.41,1.23,0.77,2.49,1.09,3.75c0.51,1.46,0.55,2.44,0.14,2.95
		c-0.41,0.51-1.51,0.95-3.28,1.33c-3.8,0.7-7.68,1.36-11.64,2c-3.96,0.63-7.78,1.33-11.45,2.09c-0.51,2.03-0.98,3.94-1.43,5.75
		c-0.44,1.81-0.92,3.6-1.43,5.37c2.98-0.51,5.81-0.92,8.51-1.24c2.69-0.32,5.62-0.57,8.79-0.76c1.77-0.13,3.15,0,4.13,0.38
		c0.98,0.38,1.82,1.14,2.52,2.28c0.76,1.27,1.35,2.46,1.76,3.56c0.41,1.11,0.87,2.23,1.38,3.37c0.32,1.27,0.32,2.14,0,2.61
		c-0.32,0.48-1.33,0.87-3.04,1.19c-4.06,0.76-8.17,1.55-12.36,2.38c-4.18,0.82-8.17,1.58-11.97,2.28c-2.54,0.63-4.45,0.77-5.75,0.43
		c-1.3-0.35-2.42-0.84-3.37-1.47c-1.08-0.7-2.11-1.41-3.09-2.14c-0.98-0.73-2.14-1.66-3.47-2.8c-1.08-0.89-1.92-1.93-2.52-3.14
		c-0.6-1.2-0.84-2.66-0.71-4.37l9.03-63.2C654.55,316.51,657.58,315.78,660.9,315.02z"/>
	<path class="st1" d="M712.8,314.02c3.26-1.17,6.73-2.06,10.41-2.66c3.67-0.6,7.43-0.82,11.26-0.67c3.83,0.16,7.54,0.89,11.12,2.18
		c3.58,1.3,6.89,3.25,9.93,5.85c3.04,2.6,5.61,6.05,7.7,10.36c1.77,3.42,2.88,7.16,3.33,11.21c0.44,4.06,0.2,8.22-0.71,12.5
		c-0.92,4.28-2.52,8.54-4.8,12.78c-2.28,4.24-5.24,8.24-8.89,11.97c-3.64,3.74-7.97,7.1-12.97,10.08
		c-5.01,2.98-10.68,5.35-17.01,7.13c-3.23,1.14-6.62,0.86-10.17-0.85c-1.78-0.89-3.33-1.76-4.66-2.61
		c-1.33-0.86-2.85-1.92-4.56-3.18c-0.63-0.57-1.23-1.12-1.81-1.66c-0.57-0.54-1.06-1.15-1.47-1.85c-0.41-0.7-0.68-1.55-0.81-2.57
		c-0.13-1.01-0.1-2.31,0.09-3.9l5.51-60.35C706.7,316.44,709.53,315.19,712.8,314.02z M729.76,372.28c3.55-2.95,6.46-6.03,8.74-9.27
		c2.28-3.23,3.99-6.46,5.13-9.69c1.14-3.23,1.81-6.24,2-9.03c0.25-3.86-0.19-6.87-1.33-9.03c-1.14-2.15-3.14-3.77-5.99-4.85
		c-2.85-1.08-6.34-0.95-10.45,0.38c-2.22,8.3-4.18,16.49-5.89,24.57c-1.71,8.08-3.36,16.24-4.94,24.47
		C721.97,377.75,726.21,375.23,729.76,372.28z"/>
</g>
<g>
	<path class="st0" d="M119.6,179.17c4.46-1.6,9.2-2.81,14.22-3.64c5.02-0.82,10.15-1.12,15.39-0.91c5.24,0.22,10.3,1.21,15.19,2.99
		c4.89,1.77,9.41,4.44,13.57,7.98c4.15,3.55,7.66,8.27,10.52,14.15c2.42,4.67,3.94,9.78,4.54,15.32c0.6,5.54,0.28,11.23-0.97,17.07
		c-1.26,5.84-3.44,11.66-6.56,17.46c-3.12,5.8-7.16,11.25-12.14,16.36c-4.98,5.11-10.89,9.69-17.72,13.76
		c-6.84,4.07-14.59,7.31-23.24,9.74c-4.41,1.56-9.05,1.17-13.89-1.17c-2.42-1.21-4.54-2.4-6.36-3.57s-3.9-2.62-6.23-4.35
		c-0.86-0.78-1.69-1.54-2.47-2.27c-0.78-0.73-1.45-1.58-2.01-2.53c-0.56-0.95-0.93-2.12-1.1-3.51c-0.17-1.38-0.13-3.16,0.13-5.32
		l7.53-82.44C111.27,182.49,115.14,180.78,119.6,179.17z M142.77,258.76c4.85-4.02,8.83-8.24,11.94-12.66
		c3.12-4.41,5.45-8.83,7.01-13.24c1.56-4.41,2.47-8.52,2.73-12.33c0.34-5.28-0.26-9.39-1.82-12.33c-1.56-2.94-4.28-5.15-8.18-6.62
		c-3.9-1.47-8.66-1.3-14.28,0.52c-3.03,11.34-5.71,22.53-8.05,33.56c-2.34,11.04-4.59,22.18-6.75,33.43
		C132.13,266.22,137.93,262.78,142.77,258.76z"/>
	<path class="st0" d="M218.79,180.54c4.54-1.04,9.3-1.99,14.28-2.86c4.98-0.86,10.08-1.62,15.32-2.27
		c5.24-0.65,10.45-1.06,15.64-1.23c4.93-0.09,8.09,1.82,9.48,5.71c1.12,2.08,1.9,3.96,2.34,5.65c0.43,1.69,0.86,3.53,1.3,5.52
		c0.35,2.25,0.17,3.77-0.52,4.54c-0.69,0.78-2.29,1.34-4.8,1.69c-5.19,0.61-10.56,1.21-16.1,1.82c-5.54,0.61-11.38,1.34-17.53,2.21
		c-1.3,3.9-2.51,7.94-3.63,12.14c-1.13,4.2-2.38,8.59-3.77,13.18c2.6-0.34,5.19-0.6,7.79-0.78c2.6-0.17,5.37-0.3,8.31-0.39
		c2.42-0.09,4.33,0.13,5.71,0.65c1.38,0.52,2.55,1.65,3.51,3.38c1.04,1.73,1.84,3.44,2.4,5.13c0.56,1.69,1.06,3.4,1.49,5.13
		c0.69,1.99,0.76,3.33,0.19,4.02c-0.56,0.69-2.06,1.3-4.48,1.82c-5.19,0.95-10.5,1.86-15.9,2.73c-5.41,0.87-10.63,1.82-15.64,2.86
		c-0.69,2.77-1.34,5.39-1.95,7.85c-0.61,2.47-1.26,4.91-1.95,7.34c4.07-0.69,7.94-1.25,11.62-1.69c3.68-0.43,7.68-0.78,12.01-1.04
		c2.42-0.17,4.31,0,5.65,0.52c1.34,0.52,2.49,1.56,3.44,3.12c1.04,1.73,1.84,3.36,2.4,4.87c0.56,1.52,1.19,3.05,1.88,4.61
		c0.43,1.73,0.43,2.92,0,3.57c-0.43,0.65-1.82,1.19-4.15,1.62c-5.54,1.04-11.17,2.12-16.88,3.25c-5.71,1.13-11.17,2.16-16.36,3.12
		c-3.46,0.86-6.08,1.06-7.85,0.58c-1.77-0.48-3.31-1.15-4.61-2.01c-1.47-0.95-2.88-1.93-4.22-2.92c-1.34-0.99-2.92-2.27-4.74-3.83
		c-1.47-1.21-2.62-2.64-3.44-4.28c-0.82-1.64-1.15-3.64-0.97-5.97l12.33-86.34C210.11,182.57,214.24,181.58,218.79,180.54z"/>
	<path class="st0" d="M393.4,244.67c2.12,3.12,3.53,6.32,4.22,9.61c0.43,3.9-0.09,7.21-1.56,9.93c-1.47,2.73-3.85,5.39-7.14,7.98
		c-2.25,1.99-4.91,3.89-7.98,5.71c-3.07,1.82-6.32,3.46-9.74,4.93c-3.42,1.47-6.86,2.79-10.32,3.96c-3.46,1.17-6.75,2.14-9.87,2.92
		c-1.65,0.43-3.05,0.73-4.22,0.91c-1.17,0.17-2.29,0.21-3.38,0.13c-1.08-0.09-2.14-0.3-3.18-0.65c-1.04-0.35-2.25-0.91-3.64-1.69
		c-2.6-1.13-4.87-2.31-6.82-3.57c-1.95-1.25-4.22-2.88-6.82-4.87c-0.95-1.04-1.8-1.93-2.53-2.66c-0.73-0.73-1.32-1.51-1.75-2.34
		c-0.43-0.82-0.73-1.75-0.91-2.79c-0.17-1.04-0.17-2.38,0-4.02c0.26-5.37,0.74-11.44,1.43-18.24c0.69-6.79,1.45-13.85,2.27-21.16
		c0.82-7.31,1.56-14.67,2.21-22.07c0.65-7.4,1.06-14.43,1.23-21.1c3.29-1.82,7.1-3.51,11.42-5.06c4.33-1.56,8.85-2.9,13.57-4.02
		c4.72-1.12,9.5-1.95,14.35-2.47c4.85-0.52,9.46-0.65,13.83-0.39c4.37,0.26,8.37,0.97,12.01,2.14c3.64,1.17,6.62,2.88,8.96,5.13
		c3.03,3.03,5.56,6.28,7.59,9.74c2.03,3.46,3.53,7.49,4.48,12.07c0.43,2.51,0.41,4.93-0.07,7.27c-0.48,2.34-1.28,4.59-2.4,6.75
		c-1.13,2.16-2.51,4.18-4.15,6.04c-1.65,1.86-3.42,3.62-5.32,5.26c-2.08,1.56-4.2,3.14-6.36,4.74c-2.17,1.6-4.72,3.14-7.66,4.61
		C388.53,239.14,391.28,241.56,393.4,244.67z M343.81,260.19c-0.74,3.33-1.41,6.73-2.01,10.19c4.5-1.12,8.61-2.49,12.33-4.09
		c3.72-1.6,6.88-3.29,9.48-5.06c2.6-1.77,4.52-3.55,5.78-5.32c1.25-1.77,1.71-3.4,1.36-4.87c-0.43-0.86-1.3-1.64-2.6-2.34
		c-1.3-0.69-3.03-1.17-5.19-1.43c-2.16-0.26-4.67-0.19-7.53,0.19c-2.86,0.39-6.02,1.15-9.48,2.27
		C345.26,253.37,344.54,256.86,343.81,260.19z M365.75,221.69c4.37-2.51,8.05-5.04,11.04-7.59c2.99-2.55,5.17-4.98,6.56-7.27
		c1.38-2.29,1.9-4.13,1.56-5.52c-0.35-1.12-1.3-1.97-2.86-2.53c-1.56-0.56-3.57-0.78-6.04-0.65c-2.47,0.13-5.3,0.63-8.5,1.49
		c-3.2,0.87-6.67,2.16-10.39,3.9c-1.21,3.72-2.25,7.62-3.12,11.68c-0.87,4.07-1.9,8.4-3.12,12.98
		C356.42,226.37,361.38,224.2,365.75,221.69z"/>
	<path class="st0" d="M490.38,193.07c1.51,2.99,2.62,6.38,3.31,10.19c0.95,6.32,1.17,13.18,0.65,20.58
		c-0.52,7.4-1.8,14.76-3.83,22.07c-2.03,7.32-4.8,14.22-8.31,20.71c-3.51,6.49-7.81,11.99-12.92,16.49
		c-3.46,2.68-7.1,4.48-10.91,5.39c-3.81,0.91-8.18,1.1-13.11,0.58c-3.29-0.35-6.67-0.89-10.13-1.62c-3.46-0.73-6.62-1.84-9.48-3.31
		c-2.34-1.21-4.63-2.77-6.88-4.67c-2.25-1.9-4.03-4.07-5.32-6.49c-2.08-3.98-3.64-8.48-4.67-13.5c-1.04-5.02-1.51-10.3-1.43-15.84
		c0.09-5.54,0.74-11.19,1.95-16.94c1.21-5.75,2.99-11.36,5.32-16.81c2.34-5.45,5.21-10.62,8.63-15.51
		c3.42-4.89,7.38-9.28,11.88-13.18c3.03-2.34,6.64-4.11,10.84-5.32c4.2-1.21,8.2-1.51,12.01-0.91c4.93,0.78,9.63,1.99,14.09,3.64
		c4.46,1.65,8.16,3.63,11.1,5.97C486.46,187.25,488.87,190.08,490.38,193.07z M456.17,199.82c-2.25,2.12-4.5,5-6.75,8.63
		c-2.25,3.64-4.35,7.68-6.3,12.14c-1.95,4.46-3.53,8.76-4.74,12.92c-1.21,4.07-2.08,8.29-2.6,12.66c-0.52,4.37-0.69,8.44-0.52,12.2
		c0.17,3.76,0.78,6.99,1.82,9.67c1.04,2.68,2.55,4.33,4.54,4.93c1.82,0.61,3.72,0.22,5.71-1.17c1.99-1.38,3.98-3.51,5.97-6.36
		c1.99-2.86,3.87-6.38,5.65-10.58c1.77-4.2,3.31-8.76,4.61-13.7c1.12-4.07,2.03-8.55,2.73-13.44c0.69-4.89,1.04-9.46,1.04-13.7
		c0-4.33-0.41-8.03-1.23-11.1c-0.82-3.07-2.1-4.87-3.83-5.39C460.46,196.94,458.42,197.7,456.17,199.82z"/>
	<path class="st0" d="M535.95,284.98c-5.76,1.08-11.23,2.14-16.42,3.18c-1.91,0.52-3.51,0.82-4.8,0.91c-1.3,0.08-2.42,0.02-3.38-0.2
		c-0.95-0.22-1.75-0.5-2.4-0.84c-0.65-0.35-1.28-0.74-1.88-1.17c-1.47-0.95-2.81-1.93-4.02-2.92c-1.21-0.99-2.81-2.27-4.8-3.83
		c-1.47-1.21-2.6-2.57-3.38-4.09c-0.78-1.51-0.99-3.35-0.65-5.52c0.26-3.38,0.69-7.38,1.3-12.01c0.61-4.63,1.34-9.63,2.21-14.99
		c0.87-5.37,1.82-10.93,2.86-16.68c1.04-5.76,2.17-11.49,3.38-17.2c1.21-5.71,2.45-11.21,3.7-16.49c1.25-5.28,2.49-10.13,3.7-14.54
		c0.86-2.51,1.97-4,3.31-4.48c1.34-0.47,3.35-0.32,6.04,0.45c2.68,0.69,5.58,1.67,8.7,2.92c3.12,1.26,5.84,2.66,8.18,4.22
		c2.25,1.65,3.66,3.07,4.22,4.28c0.56,1.21,0.45,2.94-0.32,5.19c-1.73,5.19-3.48,10.91-5.26,17.14c-1.77,6.23-3.55,12.64-5.32,19.21
		c-1.78,6.58-3.46,13.14-5.06,19.67c-1.6,6.54-3.1,12.79-4.48,18.76c3.98-0.69,7.7-1.21,11.17-1.56c3.46-0.34,7.22-0.65,11.29-0.91
		c2.42-0.17,4.26-0.02,5.52,0.45c1.25,0.48,2.4,1.54,3.44,3.18c1.04,1.56,1.88,3.14,2.53,4.74c0.65,1.6,1.15,3.14,1.49,4.61
		c0.6,1.82,0.76,3.03,0.45,3.64c-0.3,0.61-1.8,1.17-4.48,1.69C547.31,282.84,541.7,283.9,535.95,284.98z"/>
	<path class="st0" d="M620.86,256.55c2.03,2.99,4.04,5.86,6.04,8.63c1.99,2.77,3.9,5.32,5.71,7.66c1.82,2.34,3.42,4.28,4.8,5.84
		c1.47,1.47,2.05,2.66,1.75,3.57c-0.3,0.91-1.41,1.8-3.31,2.66c-1.13,0.61-2.45,1.13-3.96,1.56c-1.52,0.43-3.01,0.73-4.48,0.91
		c-2.25,0.6-4.54,0.73-6.88,0.39c-2.34-0.35-4.67-1.77-7.01-4.28c-0.95-1.04-2.25-2.47-3.89-4.28c-1.65-1.82-3.44-3.89-5.39-6.23
		c-1.95-2.34-3.98-4.82-6.1-7.47c-2.12-2.64-4.09-5.26-5.91-7.85c-1.13,5.71-2.12,10.95-2.99,15.71c-0.87,4.76-1.64,9.09-2.34,12.98
		c0,1.3-0.3,2.18-0.91,2.66c-0.61,0.47-1.47,0.69-2.6,0.65c-1.13-0.04-2.49-0.3-4.09-0.78c-1.6-0.48-3.36-0.97-5.26-1.49
		c-3.9-1.04-6.71-2.34-8.44-3.9c-1.73-1.56-2.51-3.94-2.34-7.14c0.09-3.03,0.35-6.99,0.78-11.88c0.43-4.89,1-10.28,1.69-16.16
		c0.69-5.88,1.47-12.05,2.34-18.5c0.87-6.45,1.78-12.77,2.73-18.95c0.95-6.19,1.9-12.05,2.86-17.59c0.95-5.54,1.86-10.34,2.73-14.41
		c0.69-2.42,1.73-3.91,3.12-4.48c1.38-0.56,3.33-0.45,5.84,0.32c2.77,0.69,5.73,1.73,8.89,3.12c3.16,1.39,5.91,2.86,8.24,4.41
		c1.3,0.87,2.34,1.62,3.12,2.27c0.78,0.65,1.34,1.32,1.69,2.01c0.34,0.69,0.47,1.45,0.39,2.27c-0.09,0.82-0.3,1.8-0.65,2.92
		c-1.3,4.41-2.6,9.46-3.9,15.12c-1.3,5.67-2.68,11.88-4.15,18.63c3.64-3.98,7.57-8.24,11.81-12.79c4.24-4.54,8.37-9.02,12.4-13.44
		c4.02-4.41,7.79-8.61,11.3-12.59c3.51-3.98,6.38-7.36,8.63-10.13c1.47-1.9,2.86-2.86,4.15-2.86c1.47,0,3.12,0.78,4.93,2.34
		c1.9,1.65,3.48,3.46,4.74,5.45c1.25,1.99,2.45,4.15,3.57,6.49c0.69,1.9,0.93,3.77,0.71,5.58c-0.22,1.82-1.15,4.07-2.79,6.75
		c-1.99,3.29-4.65,6.95-7.98,10.97c-3.33,4.02-6.97,8.14-10.91,12.33c-3.94,4.2-8.03,8.37-12.27,12.53
		c-4.24,4.15-8.27,8.05-12.07,11.68C616.94,250.65,618.82,253.57,620.86,256.55z"/>
</g>
<g>
	<path class="st1" d="M113.57,173.62c4.46-1.6,9.2-2.81,14.22-3.64c5.02-0.82,10.15-1.12,15.39-0.91c5.24,0.22,10.3,1.21,15.19,2.99
		c4.89,1.77,9.41,4.44,13.57,7.98c4.15,3.55,7.66,8.27,10.52,14.15c2.42,4.67,3.94,9.78,4.54,15.32c0.6,5.54,0.28,11.23-0.97,17.07
		c-1.26,5.84-3.44,11.66-6.56,17.46c-3.12,5.8-7.16,11.25-12.14,16.36c-4.98,5.11-10.89,9.69-17.72,13.76
		c-6.84,4.07-14.59,7.31-23.24,9.74c-4.41,1.56-9.05,1.17-13.89-1.17c-2.42-1.21-4.54-2.4-6.36-3.57c-1.82-1.17-3.9-2.62-6.23-4.35
		c-0.86-0.78-1.69-1.54-2.47-2.27c-0.78-0.73-1.45-1.58-2.01-2.53c-0.56-0.95-0.93-2.12-1.1-3.51c-0.17-1.38-0.13-3.16,0.13-5.32
		l7.53-82.44C105.23,176.94,109.11,175.23,113.57,173.62z M136.74,253.21c4.85-4.02,8.83-8.24,11.94-12.66
		c3.12-4.41,5.45-8.83,7.01-13.24c1.56-4.41,2.47-8.52,2.73-12.33c0.34-5.28-0.26-9.39-1.82-12.33c-1.56-2.94-4.28-5.15-8.18-6.62
		c-3.9-1.47-8.66-1.3-14.28,0.52c-3.03,11.34-5.71,22.53-8.05,33.56c-2.34,11.04-4.59,22.18-6.75,33.43
		C126.09,260.67,131.89,257.23,136.74,253.21z"/>
	<path class="st1" d="M212.75,174.99c4.54-1.04,9.3-1.99,14.28-2.86c4.98-0.86,10.08-1.62,15.32-2.27
		c5.24-0.65,10.45-1.06,15.64-1.23c4.93-0.09,8.09,1.82,9.48,5.71c1.12,2.08,1.9,3.96,2.34,5.65c0.43,1.69,0.86,3.53,1.3,5.52
		c0.35,2.25,0.17,3.77-0.52,4.54c-0.69,0.78-2.29,1.34-4.8,1.69c-5.19,0.61-10.56,1.21-16.1,1.82c-5.54,0.61-11.38,1.34-17.53,2.21
		c-1.3,3.9-2.51,7.94-3.63,12.14c-1.13,4.2-2.38,8.59-3.77,13.18c2.6-0.34,5.19-0.6,7.79-0.78c2.6-0.17,5.37-0.3,8.31-0.39
		c2.42-0.09,4.33,0.13,5.71,0.65c1.38,0.52,2.55,1.65,3.51,3.38c1.04,1.73,1.84,3.44,2.4,5.13c0.56,1.69,1.06,3.4,1.49,5.13
		c0.69,1.99,0.76,3.33,0.19,4.02c-0.56,0.69-2.06,1.3-4.48,1.82c-5.19,0.95-10.5,1.86-15.9,2.73c-5.41,0.87-10.63,1.82-15.64,2.86
		c-0.69,2.77-1.34,5.39-1.95,7.85c-0.61,2.47-1.26,4.91-1.95,7.34c4.07-0.69,7.94-1.25,11.62-1.69c3.68-0.43,7.68-0.78,12.01-1.04
		c2.42-0.17,4.31,0,5.65,0.52c1.34,0.52,2.49,1.56,3.44,3.12c1.04,1.73,1.84,3.36,2.4,4.87c0.56,1.52,1.19,3.05,1.88,4.61
		c0.43,1.73,0.43,2.92,0,3.57c-0.43,0.65-1.82,1.19-4.15,1.62c-5.54,1.04-11.17,2.12-16.88,3.25c-5.71,1.13-11.17,2.16-16.36,3.12
		c-3.46,0.86-6.08,1.06-7.85,0.58c-1.77-0.48-3.31-1.15-4.61-2.01c-1.47-0.95-2.88-1.93-4.22-2.92c-1.34-0.99-2.92-2.27-4.74-3.83
		c-1.47-1.21-2.62-2.64-3.44-4.28c-0.82-1.64-1.15-3.64-0.97-5.97l12.33-86.34C204.07,177.02,208.21,176.03,212.75,174.99z"/>
	<path class="st1" d="M387.37,239.12c2.12,3.12,3.53,6.32,4.22,9.61c0.43,3.9-0.09,7.21-1.56,9.93c-1.47,2.73-3.85,5.39-7.14,7.98
		c-2.25,1.99-4.91,3.89-7.98,5.71c-3.07,1.82-6.32,3.46-9.74,4.93c-3.42,1.47-6.86,2.79-10.32,3.96c-3.46,1.17-6.75,2.14-9.87,2.92
		c-1.65,0.43-3.05,0.73-4.22,0.91c-1.17,0.17-2.29,0.21-3.38,0.13c-1.08-0.09-2.14-0.3-3.18-0.65c-1.04-0.35-2.25-0.91-3.64-1.69
		c-2.6-1.13-4.87-2.31-6.82-3.57c-1.95-1.25-4.22-2.88-6.82-4.87c-0.95-1.04-1.8-1.93-2.53-2.66c-0.73-0.73-1.32-1.51-1.75-2.34
		c-0.43-0.82-0.73-1.75-0.91-2.79c-0.17-1.04-0.17-2.38,0-4.02c0.26-5.37,0.74-11.45,1.43-18.24c0.69-6.79,1.45-13.85,2.27-21.16
		c0.82-7.31,1.56-14.67,2.21-22.07c0.65-7.4,1.06-14.43,1.23-21.1c3.29-1.82,7.1-3.51,11.42-5.06c4.33-1.56,8.85-2.9,13.57-4.02
		c4.72-1.12,9.5-1.95,14.35-2.47c4.85-0.52,9.46-0.65,13.83-0.39c4.37,0.26,8.37,0.97,12.01,2.14s6.62,2.88,8.96,5.13
		c3.03,3.03,5.56,6.28,7.59,9.74c2.03,3.46,3.53,7.49,4.48,12.07c0.43,2.51,0.41,4.93-0.07,7.27c-0.48,2.34-1.28,4.59-2.4,6.75
		c-1.13,2.16-2.51,4.18-4.15,6.04c-1.65,1.86-3.42,3.62-5.32,5.26c-2.08,1.56-4.2,3.14-6.36,4.74c-2.17,1.6-4.72,3.14-7.66,4.61
		C382.5,233.59,385.25,236.01,387.37,239.12z M337.77,254.64c-0.74,3.33-1.41,6.73-2.01,10.19c4.5-1.12,8.61-2.49,12.33-4.09
		c3.72-1.6,6.88-3.29,9.48-5.06c2.6-1.77,4.52-3.55,5.78-5.32c1.25-1.77,1.71-3.4,1.36-4.87c-0.43-0.86-1.3-1.64-2.6-2.34
		c-1.3-0.69-3.03-1.17-5.19-1.43c-2.16-0.26-4.67-0.19-7.53,0.19c-2.86,0.39-6.02,1.15-9.48,2.27
		C339.22,247.82,338.51,251.31,337.77,254.64z M359.72,216.14c4.37-2.51,8.05-5.04,11.04-7.59c2.99-2.55,5.17-4.98,6.56-7.27
		c1.38-2.29,1.9-4.13,1.56-5.52c-0.35-1.12-1.3-1.97-2.86-2.53c-1.56-0.56-3.57-0.78-6.04-0.65c-2.47,0.13-5.3,0.63-8.5,1.49
		c-3.2,0.87-6.67,2.16-10.39,3.9c-1.21,3.72-2.25,7.62-3.12,11.68c-0.87,4.07-1.9,8.4-3.12,12.98
		C350.39,220.82,355.34,218.65,359.72,216.14z"/>
	<path class="st1" d="M484.35,187.52c1.51,2.99,2.62,6.38,3.31,10.19c0.95,6.32,1.17,13.18,0.65,20.58
		c-0.52,7.4-1.8,14.76-3.83,22.07c-2.03,7.32-4.8,14.22-8.31,20.71c-3.51,6.49-7.81,11.99-12.92,16.49
		c-3.46,2.68-7.1,4.48-10.91,5.39c-3.81,0.91-8.18,1.1-13.11,0.58c-3.29-0.35-6.67-0.89-10.13-1.62c-3.46-0.73-6.62-1.84-9.48-3.31
		c-2.34-1.21-4.63-2.77-6.88-4.67c-2.25-1.9-4.03-4.07-5.32-6.49c-2.08-3.98-3.64-8.48-4.67-13.5c-1.04-5.02-1.51-10.3-1.43-15.84
		c0.09-5.54,0.74-11.19,1.95-16.94c1.21-5.75,2.99-11.36,5.32-16.81c2.34-5.45,5.21-10.62,8.63-15.51
		c3.42-4.89,7.38-9.28,11.88-13.18c3.03-2.34,6.64-4.11,10.84-5.32c4.2-1.21,8.2-1.51,12.01-0.91c4.93,0.78,9.63,1.99,14.09,3.64
		c4.46,1.65,8.16,3.63,11.1,5.97C480.43,181.7,482.83,184.53,484.35,187.52z M450.14,194.27c-2.25,2.12-4.5,5-6.75,8.63
		c-2.25,3.64-4.35,7.68-6.3,12.14c-1.95,4.46-3.53,8.76-4.74,12.92c-1.21,4.07-2.08,8.29-2.6,12.66c-0.52,4.37-0.69,8.44-0.52,12.2
		c0.17,3.76,0.78,6.99,1.82,9.67c1.04,2.68,2.55,4.33,4.54,4.93c1.82,0.61,3.72,0.22,5.71-1.17c1.99-1.38,3.98-3.51,5.97-6.36
		c1.99-2.86,3.87-6.38,5.65-10.58c1.77-4.2,3.31-8.76,4.61-13.7c1.12-4.07,2.03-8.55,2.73-13.44c0.69-4.89,1.04-9.46,1.04-13.7
		c0-4.33-0.41-8.03-1.23-11.1c-0.82-3.07-2.1-4.87-3.83-5.39C454.42,191.39,452.39,192.15,450.14,194.27z"/>
	<path class="st1" d="M529.92,279.43c-5.76,1.08-11.23,2.14-16.42,3.18c-1.91,0.52-3.51,0.82-4.8,0.91c-1.3,0.08-2.42,0.02-3.38-0.2
		c-0.95-0.22-1.75-0.5-2.4-0.84c-0.65-0.35-1.28-0.74-1.88-1.17c-1.47-0.95-2.81-1.93-4.02-2.92c-1.21-0.99-2.81-2.27-4.8-3.83
		c-1.47-1.21-2.6-2.57-3.38-4.09c-0.78-1.51-0.99-3.35-0.65-5.52c0.26-3.38,0.69-7.38,1.3-12.01c0.61-4.63,1.34-9.63,2.21-14.99
		c0.87-5.37,1.82-10.93,2.86-16.68c1.04-5.76,2.17-11.49,3.38-17.2c1.21-5.71,2.45-11.21,3.7-16.49c1.25-5.28,2.49-10.13,3.7-14.54
		c0.86-2.51,1.97-4,3.31-4.48c1.34-0.47,3.35-0.32,6.04,0.45c2.68,0.69,5.58,1.67,8.7,2.92c3.12,1.26,5.84,2.66,8.18,4.22
		c2.25,1.65,3.66,3.07,4.22,4.28c0.56,1.21,0.45,2.94-0.32,5.19c-1.73,5.19-3.48,10.91-5.26,17.14c-1.78,6.23-3.55,12.64-5.32,19.21
		c-1.77,6.58-3.46,13.14-5.06,19.67c-1.6,6.54-3.1,12.79-4.48,18.76c3.98-0.69,7.7-1.21,11.17-1.56c3.46-0.34,7.22-0.65,11.29-0.91
		c2.42-0.17,4.26-0.02,5.52,0.45c1.25,0.48,2.4,1.54,3.44,3.18c1.04,1.56,1.88,3.14,2.53,4.74c0.65,1.6,1.15,3.14,1.49,4.61
		c0.6,1.82,0.76,3.03,0.45,3.64c-0.3,0.61-1.8,1.17-4.48,1.69C541.28,277.29,535.67,278.35,529.92,279.43z"/>
	<path class="st1" d="M614.82,251c2.03,2.99,4.04,5.86,6.04,8.63c1.99,2.77,3.9,5.32,5.71,7.66c1.82,2.34,3.42,4.28,4.8,5.84
		c1.47,1.47,2.05,2.66,1.75,3.57c-0.3,0.91-1.41,1.8-3.31,2.66c-1.13,0.61-2.45,1.13-3.96,1.56c-1.52,0.43-3.01,0.73-4.48,0.91
		c-2.25,0.6-4.54,0.73-6.88,0.39c-2.34-0.35-4.67-1.77-7.01-4.28c-0.95-1.04-2.25-2.47-3.89-4.28c-1.65-1.82-3.44-3.89-5.39-6.23
		c-1.95-2.34-3.98-4.82-6.1-7.47c-2.12-2.64-4.09-5.26-5.91-7.85c-1.13,5.71-2.12,10.95-2.99,15.71c-0.87,4.76-1.64,9.09-2.34,12.98
		c0,1.3-0.3,2.18-0.91,2.66c-0.61,0.47-1.47,0.69-2.6,0.65c-1.13-0.04-2.49-0.3-4.09-0.78c-1.6-0.48-3.36-0.97-5.26-1.49
		c-3.9-1.04-6.71-2.34-8.44-3.9c-1.73-1.56-2.51-3.94-2.34-7.14c0.09-3.03,0.35-6.99,0.78-11.88c0.43-4.89,1-10.28,1.69-16.16
		c0.69-5.88,1.47-12.05,2.34-18.5c0.87-6.45,1.77-12.77,2.73-18.95c0.95-6.19,1.9-12.05,2.86-17.59c0.95-5.54,1.86-10.34,2.73-14.41
		c0.69-2.42,1.73-3.91,3.12-4.48c1.38-0.56,3.33-0.45,5.84,0.32c2.77,0.69,5.73,1.73,8.89,3.12c3.16,1.39,5.91,2.86,8.24,4.41
		c1.3,0.87,2.34,1.62,3.12,2.27c0.78,0.65,1.34,1.32,1.69,2.01c0.34,0.69,0.47,1.45,0.39,2.27c-0.09,0.82-0.3,1.8-0.65,2.92
		c-1.3,4.41-2.6,9.46-3.9,15.12c-1.3,5.67-2.68,11.88-4.15,18.63c3.64-3.98,7.57-8.24,11.81-12.79c4.24-4.54,8.37-9.02,12.4-13.44
		c4.02-4.41,7.79-8.61,11.3-12.59c3.51-3.98,6.38-7.36,8.63-10.13c1.47-1.9,2.86-2.86,4.15-2.86c1.47,0,3.12,0.78,4.93,2.34
		c1.9,1.65,3.48,3.46,4.74,5.45c1.25,1.99,2.45,4.15,3.57,6.49c0.69,1.9,0.93,3.77,0.71,5.58c-0.22,1.82-1.15,4.07-2.79,6.75
		c-1.99,3.29-4.65,6.95-7.98,10.97c-3.33,4.02-6.97,8.14-10.91,12.33c-3.94,4.2-8.03,8.37-12.27,12.53
		c-4.24,4.15-8.27,8.05-12.07,11.68C610.91,245.1,612.79,248.02,614.82,251z"/>
</g>
</svg>
