<svg id="ac7a9e3d-6dbd-4ed1-838d-be0837922340" data-name="Calque 1" xmlns="http://www.w3.org/2000/svg" xmlns:xlink="http://www.w3.org/1999/xlink" viewBox="0 0 595.28 595.28"><defs><linearGradient id="b0582e46-e032-4f3d-90a2-a332880b4a99" x1="83.92" y1="227.59" x2="197.73" y2="341.41" gradientUnits="userSpaceOnUse"><stop offset="0" stop-color="#ea212e"/><stop offset="0.5" stop-color="#ae151e"/><stop offset="1" stop-color="#9b0f17"/></linearGradient><linearGradient id="a538800b-3190-48df-944a-01866a88c945" x1="84.89" y1="226.62" x2="198.7" y2="340.43" xlink:href="#b0582e46-e032-4f3d-90a2-a332880b4a99"/></defs><title>horizontal</title><rect x="92.13" y="233.86" width="99.21" height="99.21" transform="translate(425.2 141.73) rotate(90)" fill="#fff"/><polygon points="253.79 274.33 245.25 274.33 245.25 245.36 236.22 245.36 236.22 282.76 253.79 282.76 253.79 274.33"/><path d="M288.44,267.79V245.36h-9v22.43c0,4.22-2.06,7.19-6.33,7.19-4.43,0-6.43-2.92-6.43-7.14V245.36h-9v22.48c0,9.36,4.82,15.62,15.36,15.62C283.25,283.46,288.44,276.82,288.44,267.79Z"/><polygon points="326.54 282.76 326.54 245.36 317.84 245.36 317.84 267.95 303.79 245.36 294.49 245.36 294.49 282.76 303.19 282.76 303.19 260.65 317.62 282.76 326.54 282.76"/><path d="M343,245.36l-13.08,37.4h8.87l3.08-8.92h11.78l3.14,8.92h9.56l-13.83-37.4Zm1.46,20.92,3.3-9.46,3.3,9.46Z"/><polygon points="364.87 253.79 371.13 253.79 371.13 282.76 380.16 282.76 380.16 253.79 386.38 253.79 386.38 245.36 364.87 245.36 364.87 253.79"/><polygon points="409.3 253.79 409.3 245.36 391.57 245.36 391.57 282.76 409.46 282.76 409.46 274.33 400.6 274.33 400.6 267.9 409.02 267.9 409.02 259.57 400.6 259.57 400.6 253.79 409.3 253.79"/><path d="M434.16,253.09a10.72,10.72,0,0,1,7.19,2.81l5.35-6.81a18.36,18.36,0,0,0-12.65-4.43c-11.94,0-19.73,8.64-19.73,19.45s7.46,19.35,19.9,19.35a17.33,17.33,0,0,0,12.43-4.86l-5.3-6.38a10.77,10.77,0,0,1-7.13,2.81c-6.28,0-10.44-4.81-10.44-11S427.51,253.09,434.16,253.09Z"/><polygon points="450.86 245.36 450.86 282.76 459.89 282.76 459.89 268 472.86 268 472.86 282.76 481.89 282.76 481.89 245.36 472.86 245.36 472.86 259.41 459.89 259.41 459.89 245.36 450.86 245.36"/><rect x="129.91" y="273.12" width="19.76" height="20.68" fill="url(#b0582e46-e032-4f3d-90a2-a332880b4a99)"/><path d="M198.43,226.77H85V340.16H198.43Zm-27.19,46.35H161v26.63a5.83,5.83,0,0,1-5.68,5.95H124.23a5.83,5.83,0,0,1-5.68-5.95V267.17a5.82,5.82,0,0,1,5.68-5.94h47a6,6,0,0,1,0,11.89Z" fill="url(#a538800b-3190-48df-944a-01866a88c945)"/><path d="M241.54,313.16a3.45,3.45,0,0,1-3.42-1.92l-1.9,1c.9,2.22,2.8,3,5.28,3,2.7,0,5.09-1.16,5.09-3.86,0-2.89-2.35-3.55-4.88-3.86-1.46-.18-2.7-.47-2.7-1.53,0-.9.81-1.61,2.51-1.61a3.47,3.47,0,0,1,2.87,1.35l1.82-.93c-.92-1.87-2.87-2.41-4.76-2.41-2.23,0-4.69,1-4.69,3.53,0,2.72,2.28,3.38,4.76,3.67,1.61.18,2.8.64,2.8,1.79C244.32,312.66,243,313.16,241.54,313.16Z"/><rect x="254.61" y="302.78" width="2.27" height="12.12"/><polygon points="278.1 314.91 278.1 302.8 275.48 302.8 271.69 308.01 267.9 302.8 265.27 302.8 265.27 314.91 267.56 314.91 267.56 306.1 271.42 311.38 271.87 311.38 275.81 306.12 275.81 314.91 278.1 314.91"/><path d="M288.76,311.33h3.43a4.29,4.29,0,1,0,0-8.57l-5.71,0V314.9h2.28Zm0-6.39h3.43a2.15,2.15,0,1,1,0,4.29h-3.43Z"/><polygon points="304.41 302.78 304.41 314.9 312.93 314.9 312.93 312.78 306.7 312.78 306.7 302.78 304.41 302.78"/><rect x="320.79" y="302.78" width="2.27" height="12.12"/><polygon points="340.14 304.99 340.14 302.8 331.44 302.8 331.44 314.9 333.72 314.9 333.72 310.41 339.8 310.41 339.8 308.3 333.72 308.3 333.72 304.99 340.14 304.99"/><polygon points="354.74 314.9 354.74 309.89 359.57 302.88 359.57 302.78 356.81 302.78 353.59 307.78 350.51 302.78 347.79 302.78 347.79 302.88 352.45 309.89 352.45 314.9 354.74 314.9"/><polygon points="382.78 314.9 382.78 309.89 387.61 302.88 387.61 302.78 384.86 302.78 381.64 307.78 378.56 302.78 375.84 302.78 375.84 302.88 380.5 309.89 380.5 314.9 382.78 314.9"/><path d="M394.31,308.92a5.9,5.9,0,0,0,6.23,6.25c4.26,0,6.18-3.13,6.22-6.26a6,6,0,0,0-6.22-6.37C396.35,302.54,394.31,305.74,394.31,308.92Zm10.2,0c0,2-1.11,4.14-4,4.14s-3.93-2.13-4-4.12,1.13-4.35,4-4.35S404.54,306.9,404.51,308.94Z"/><path d="M414.67,302.8v6.94a5.05,5.05,0,0,0,5.38,5.42c3.05,0,5.25-1.84,5.25-5.42V302.8H423v6.94c0,2.07-1.07,3.34-3,3.34s-3.13-1.16-3.13-3.34V302.8Z"/><path d="M443.91,306.79c0-2.09-1.51-4-4.36-4l-5.77,0V314.9h2.29v-4.06h2.19l3.54,4.06h2.71v-.16l-3.67-4.14A3.59,3.59,0,0,0,443.91,306.79Zm-4.36,2h-3.48v-3.87h3.48a1.94,1.94,0,1,1,0,3.87Z"/><rect x="461.43" y="302.78" width="2.27" height="12.12"/><path d="M471.92,304.86h3.84v10h2.29v-10h3.84v-2.08h-10Z"/></svg>